<mxfile host="app.diagrams.net" agent="Mozilla/5.0 (Windows NT 10.0; Win64; x64; rv:129.0) Gecko/20100101 Firefox/129.0" version="24.7.6">
  <diagram name="Page-1" id="uQS9ek2D7PSYEIglThoV">
    <mxGraphModel grid="1" page="1" gridSize="10" guides="1" tooltips="1" connect="1" arrows="1" fold="1" pageScale="1" pageWidth="827" pageHeight="1169" math="0" shadow="0">
      <root>
        <mxCell id="0" />
        <mxCell id="1" parent="0" />
        <mxCell id="U23WQa-dYomXpCL9znLz-92" value="&lt;div&gt;&amp;nbsp; alt&lt;/div&gt;&lt;div&gt;&lt;br&gt;&lt;/div&gt;&lt;div&gt;&amp;nbsp;[канал найден]&lt;/div&gt;" style="html=1;shape=mxgraph.sysml.package;align=left;spacingLeft=5;verticalAlign=top;spacingTop=-3;labelX=30.86;html=1;overflow=fill;" vertex="1" parent="1">
          <mxGeometry x="740" y="280" width="820" height="190" as="geometry" />
        </mxCell>
        <mxCell id="W0ff3i4siTfIfyOrShSM-3" value="&lt;div align=&quot;left&quot;&gt;[иначе]&lt;/div&gt;" style="rounded=0;whiteSpace=wrap;html=1;align=left;fillColor=#dae8fc;strokeColor=#6c8ebf;" vertex="1" parent="1">
          <mxGeometry x="740" y="410" width="820" height="150" as="geometry" />
        </mxCell>
        <mxCell id="W0ff3i4siTfIfyOrShSM-61" value="&lt;div&gt;&amp;nbsp; opt&lt;/div&gt;&lt;div&gt;&lt;br&gt;&lt;/div&gt;&lt;div&gt;&amp;nbsp;[оформить&amp;nbsp;&lt;/div&gt;&lt;div&gt;&amp;nbsp; подписку]&lt;/div&gt;" style="html=1;shape=mxgraph.sysml.package;align=left;spacingLeft=5;verticalAlign=top;spacingTop=-3;labelX=30.86;html=1;overflow=fill;fillColor=#fff2cc;strokeColor=#d6b656;" vertex="1" parent="1">
          <mxGeometry x="800" y="470" width="980" height="80" as="geometry" />
        </mxCell>
        <mxCell id="U23WQa-dYomXpCL9znLz-117" value="&lt;div&gt;&amp;nbsp; alt&lt;/div&gt;&lt;div&gt;&lt;br&gt;&lt;/div&gt;&lt;div&gt;&amp;nbsp;[канал найден]&lt;/div&gt;" style="html=1;shape=mxgraph.sysml.package;align=left;spacingLeft=5;verticalAlign=top;spacingTop=-3;labelX=30.86;html=1;overflow=fill;" vertex="1" parent="1">
          <mxGeometry x="740" y="-160" width="820" height="190" as="geometry" />
        </mxCell>
        <mxCell id="W0ff3i4siTfIfyOrShSM-1" value="&lt;div align=&quot;left&quot;&gt;[иначе]&lt;/div&gt;" style="rounded=0;whiteSpace=wrap;html=1;align=left;fillColor=#dae8fc;strokeColor=#6c8ebf;" vertex="1" parent="1">
          <mxGeometry x="740" y="-30" width="820" height="150" as="geometry" />
        </mxCell>
        <mxCell id="W0ff3i4siTfIfyOrShSM-46" value="&lt;div&gt;&amp;nbsp; opt&lt;/div&gt;&lt;div&gt;&lt;br&gt;&lt;/div&gt;&lt;div&gt;&amp;nbsp;[оформить&amp;nbsp;&lt;/div&gt;&lt;div&gt;&amp;nbsp; подписку]&lt;/div&gt;" style="html=1;shape=mxgraph.sysml.package;align=left;spacingLeft=5;verticalAlign=top;spacingTop=-3;labelX=30.86;html=1;overflow=fill;fillColor=#fff2cc;strokeColor=#d6b656;" vertex="1" parent="1">
          <mxGeometry x="800" y="30" width="980" height="80" as="geometry" />
        </mxCell>
        <mxCell id="U23WQa-dYomXpCL9znLz-64" value="&lt;div&gt;&amp;nbsp; alt&lt;/div&gt;&lt;div&gt;&lt;br&gt;&lt;/div&gt;&amp;nbsp;[каналы найдены]" style="html=1;shape=mxgraph.sysml.package;align=left;spacingLeft=5;verticalAlign=top;spacingTop=-3;labelX=30.86;html=1;overflow=fill;" vertex="1" parent="1">
          <mxGeometry x="745" y="-730" width="820" height="170" as="geometry" />
        </mxCell>
        <mxCell id="W0ff3i4siTfIfyOrShSM-2" value="&lt;div align=&quot;left&quot;&gt;[иначе]&lt;/div&gt;" style="rounded=0;whiteSpace=wrap;html=1;align=left;fillColor=#dae8fc;strokeColor=#6c8ebf;" vertex="1" parent="1">
          <mxGeometry x="745" y="-610" width="820" height="140" as="geometry" />
        </mxCell>
        <mxCell id="W0ff3i4siTfIfyOrShSM-4" value="&lt;div&gt;&amp;nbsp; opt&lt;/div&gt;&lt;div&gt;&lt;br&gt;&lt;/div&gt;&lt;div&gt;&amp;nbsp;[оформить&amp;nbsp;&lt;/div&gt;&lt;div&gt;&amp;nbsp; подписку]&lt;/div&gt;" style="html=1;shape=mxgraph.sysml.package;align=left;spacingLeft=5;verticalAlign=top;spacingTop=-3;labelX=30.86;html=1;overflow=fill;fillColor=#fff2cc;strokeColor=#d6b656;" vertex="1" parent="1">
          <mxGeometry x="800" y="-560" width="980" height="80" as="geometry" />
        </mxCell>
        <mxCell id="U23WQa-dYomXpCL9znLz-143" value="&lt;div&gt;&amp;nbsp; alt&lt;/div&gt;&lt;div&gt;&lt;br&gt;&lt;/div&gt;&lt;div&gt;&amp;nbsp;[канал найден]&lt;/div&gt;" style="html=1;shape=mxgraph.sysml.package;align=left;spacingLeft=5;verticalAlign=top;spacingTop=-3;labelX=30.86;html=1;overflow=fill;" vertex="1" parent="1">
          <mxGeometry x="740" y="960" width="620" height="70" as="geometry" />
        </mxCell>
        <mxCell id="U23WQa-dYomXpCL9znLz-142" value="&lt;div align=&quot;left&quot;&gt;[иначе]&lt;/div&gt;" style="rounded=0;whiteSpace=wrap;html=1;align=left;" vertex="1" parent="1">
          <mxGeometry x="740" y="1030" width="620" height="60" as="geometry" />
        </mxCell>
        <mxCell id="U23WQa-dYomXpCL9znLz-116" value="&lt;div align=&quot;left&quot;&gt;[иначе]&lt;/div&gt;" style="rounded=0;whiteSpace=wrap;html=1;align=left;" vertex="1" parent="1">
          <mxGeometry x="740" y="120" width="820" height="50" as="geometry" />
        </mxCell>
        <mxCell id="U23WQa-dYomXpCL9znLz-119" value="&lt;div&gt;&amp;nbsp; alt&lt;/div&gt;&lt;div&gt;&lt;br&gt;&lt;/div&gt;&lt;div&gt;&amp;nbsp;[каналы доступны]&lt;/div&gt;" style="html=1;shape=mxgraph.sysml.package;align=left;spacingLeft=5;verticalAlign=top;spacingTop=-3;labelX=30.86;html=1;overflow=fill;fillColor=#dae8fc;strokeColor=#6c8ebf;" vertex="1" parent="1">
          <mxGeometry x="740" y="-100" width="820" height="70" as="geometry" />
        </mxCell>
        <mxCell id="U23WQa-dYomXpCL9znLz-57" value="&lt;div align=&quot;left&quot;&gt;[иначе]&lt;/div&gt;" style="rounded=0;whiteSpace=wrap;html=1;align=left;" vertex="1" parent="1">
          <mxGeometry x="745" y="-470" width="820" height="60" as="geometry" />
        </mxCell>
        <mxCell id="U23WQa-dYomXpCL9znLz-108" value="&lt;div align=&quot;left&quot;&gt;[иначе]&lt;/div&gt;" style="rounded=0;whiteSpace=wrap;html=1;align=left;" vertex="1" parent="1">
          <mxGeometry x="740" y="560" width="820" height="60" as="geometry" />
        </mxCell>
        <mxCell id="U23WQa-dYomXpCL9znLz-98" value="&lt;div&gt;&amp;nbsp; alt&lt;/div&gt;&lt;div&gt;&lt;br&gt;&lt;/div&gt;&lt;div&gt;&amp;nbsp;[каналы доступны]&lt;/div&gt;" style="html=1;shape=mxgraph.sysml.package;align=left;spacingLeft=5;verticalAlign=top;spacingTop=-3;labelX=30.86;html=1;overflow=fill;fillColor=#dae8fc;strokeColor=#6c8ebf;" vertex="1" parent="1">
          <mxGeometry x="740" y="340" width="820" height="70" as="geometry" />
        </mxCell>
        <mxCell id="U23WQa-dYomXpCL9znLz-85" value="&lt;div align=&quot;left&quot;&gt;[иначе]&lt;/div&gt;" style="rounded=0;whiteSpace=wrap;html=1;align=left;" vertex="1" parent="1">
          <mxGeometry x="745" y="-870" width="615" height="50" as="geometry" />
        </mxCell>
        <mxCell id="U23WQa-dYomXpCL9znLz-68" value="&lt;div&gt;&amp;nbsp; alt&lt;/div&gt;&lt;div&gt;&lt;br&gt;&lt;/div&gt;&lt;div&gt;&amp;nbsp;[каналы доступны&lt;/div&gt;&lt;div&gt;&amp;nbsp; по подписке]&lt;/div&gt;" style="html=1;shape=mxgraph.sysml.package;align=left;spacingLeft=5;verticalAlign=top;spacingTop=-3;labelX=30.86;html=1;overflow=fill;fillColor=#dae8fc;strokeColor=#6c8ebf;" vertex="1" parent="1">
          <mxGeometry x="745" y="-680" width="820" height="70" as="geometry" />
        </mxCell>
        <mxCell id="U23WQa-dYomXpCL9znLz-4" value="&lt;div&gt;&amp;nbsp; alt&lt;/div&gt;&lt;div&gt;&lt;br&gt;&lt;/div&gt;&amp;nbsp;[пользователь авторизован]" style="html=1;shape=mxgraph.sysml.package;align=left;spacingLeft=5;verticalAlign=top;spacingTop=-3;labelX=30.86;html=1;overflow=fill;" vertex="1" parent="1">
          <mxGeometry x="745" y="-950" width="615" height="80" as="geometry" />
        </mxCell>
        <mxCell id="zd0dRC9yfDdlV3mLB25J-2" value="&lt;h1 style=&quot;font-size: 20px;&quot;&gt;&lt;font style=&quot;font-size: 20px;&quot;&gt;UPDATE:&lt;/font&gt;&lt;/h1&gt;&lt;h1 style=&quot;font-size: 20px;&quot;&gt;&lt;font style=&quot;font-size: 20px;&quot;&gt;Заметка для ревьюера&lt;/font&gt;&lt;/h1&gt;&lt;div&gt;Последовательность просмотра/удаления поменял.&lt;br&gt;&lt;/div&gt;&lt;p style=&quot;font-size: 20px;&quot;&gt;Насчёт opt: в в диаграмме компонентов указана подписка, плюс возможны иные фильтры контента. Канал может быть доступен либо недоступен в зависимости от этих условий.&lt;br&gt;&lt;/p&gt;&lt;p style=&quot;font-size: 20px;&quot;&gt;Мне казалось, что это подходит под опциональное условие. Или opt используется только при опциональном/условном действии клиента, но не компонентов?&lt;/p&gt;&lt;p style=&quot;font-size: 20px;&quot;&gt;Может, opt/alt надо совмещать как-то иначе? Хотелось бы получить комментарий по этому вопросу.&lt;br&gt;&lt;/p&gt;" style="text;html=1;strokeColor=#d6b656;fillColor=#9999FF;spacing=5;spacingTop=-20;whiteSpace=wrap;overflow=hidden;rounded=0;fontSize=20;" vertex="1" parent="1">
          <mxGeometry x="1820" y="-90" width="370" height="560" as="geometry" />
        </mxCell>
        <mxCell id="zd0dRC9yfDdlV3mLB25J-4" value="&lt;h1 style=&quot;font-size: 20px;&quot;&gt;&lt;font style=&quot;font-size: 20px;&quot;&gt;Заметка для ревьюера&lt;/font&gt;&lt;/h1&gt;В принципе, пользователь вряд ли попытается добавить в избранное канал, которого нет у него перед глазами в UI, но на всякий случай поставим обработку некорректных запросов и вопросов доступа. Проверку фильтров контента, подписки и т.д. условно поставлю в совместную проверку доступа - но при желании, конечно, можно и расписать." style="text;html=1;strokeColor=#d6b656;fillColor=#fff2cc;spacing=5;spacingTop=-20;whiteSpace=wrap;overflow=hidden;rounded=0;fontSize=20;" vertex="1" parent="1">
          <mxGeometry x="1820" y="-440" width="370" height="290" as="geometry" />
        </mxCell>
        <mxCell id="oFbbETFREsKXqKu5l48W-1" style="edgeStyle=none;rounded=0;orthogonalLoop=1;jettySize=auto;html=1;endArrow=blockThin;endFill=1;" edge="1" parent="1" source="oFbbETFREsKXqKu5l48W-3">
          <mxGeometry relative="1" as="geometry">
            <mxPoint x="1119.9999999999998" y="-988" as="targetPoint" />
            <Array as="points">
              <mxPoint x="1049" y="-988" />
            </Array>
          </mxGeometry>
        </mxCell>
        <mxCell id="oFbbETFREsKXqKu5l48W-2" value="авторизация(логин, пароль)" style="edgeLabel;html=1;align=center;verticalAlign=middle;resizable=0;points=[];" vertex="1" connectable="0" parent="oFbbETFREsKXqKu5l48W-1">
          <mxGeometry x="0.0631" y="-3" relative="1" as="geometry">
            <mxPoint x="-7" y="-4" as="offset" />
          </mxGeometry>
        </mxCell>
        <mxCell id="oFbbETFREsKXqKu5l48W-3" value="&lt;span style=&quot;background-color: rgb(255, 255, 255);&quot;&gt;Пользователь&lt;/span&gt;" style="shape=umlLifeline;participant=umlActor;perimeter=lifelinePerimeter;whiteSpace=wrap;html=1;container=0;collapsible=0;recursiveResize=0;verticalAlign=top;spacingTop=36;outlineConnect=0;movable=1;resizable=1;rotatable=1;deletable=1;editable=1;locked=0;connectable=1;" vertex="1" parent="1">
          <mxGeometry x="910" y="-1060" width="20" height="2380" as="geometry" />
        </mxCell>
        <mxCell id="oFbbETFREsKXqKu5l48W-4" value=":ТВ-каналы" style="shape=umlLifeline;perimeter=lifelinePerimeter;whiteSpace=wrap;html=1;container=1;collapsible=0;recursiveResize=0;outlineConnect=0;" vertex="1" parent="1">
          <mxGeometry x="1499" y="-1060" width="100" height="2380" as="geometry" />
        </mxCell>
        <mxCell id="U23WQa-dYomXpCL9znLz-26" value="" style="html=1;dashed=0;whiteSpace=wrap;" vertex="1" parent="oFbbETFREsKXqKu5l48W-4">
          <mxGeometry x="45" y="310" width="10" height="350" as="geometry" />
        </mxCell>
        <mxCell id="U23WQa-dYomXpCL9znLz-20" style="edgeStyle=none;rounded=0;orthogonalLoop=1;jettySize=auto;html=1;endArrow=none;endFill=0;startArrow=classic;startFill=1;exitX=1;exitY=0.28;exitDx=0;exitDy=0;exitPerimeter=0;dashed=1;" edge="1" parent="oFbbETFREsKXqKu5l48W-4">
          <mxGeometry relative="1" as="geometry">
            <mxPoint x="44" y="360" as="targetPoint" />
            <Array as="points">
              <mxPoint x="-1" y="359.65999999999997" />
            </Array>
            <mxPoint x="-157" y="359.65999999999997" as="sourcePoint" />
          </mxGeometry>
        </mxCell>
        <mxCell id="U23WQa-dYomXpCL9znLz-21" value="&lt;font style=&quot;font-size: 9px;&quot;&gt;список каналов с заданными параметрами&lt;/font&gt;" style="edgeLabel;html=1;align=center;verticalAlign=middle;resizable=0;points=[];" vertex="1" connectable="0" parent="U23WQa-dYomXpCL9znLz-20">
          <mxGeometry x="0.0981" y="-1" relative="1" as="geometry">
            <mxPoint x="-8" y="-3" as="offset" />
          </mxGeometry>
        </mxCell>
        <mxCell id="U23WQa-dYomXpCL9znLz-89" value="" style="html=1;dashed=0;whiteSpace=wrap;" vertex="1" parent="oFbbETFREsKXqKu5l48W-4">
          <mxGeometry x="45" y="1310" width="10" height="350" as="geometry" />
        </mxCell>
        <mxCell id="U23WQa-dYomXpCL9znLz-136" value="" style="html=1;dashed=0;whiteSpace=wrap;" vertex="1" parent="oFbbETFREsKXqKu5l48W-4">
          <mxGeometry x="45" y="840" width="10" height="370" as="geometry" />
        </mxCell>
        <mxCell id="U23WQa-dYomXpCL9znLz-95" style="rounded=0;orthogonalLoop=1;jettySize=auto;html=1;endArrow=none;endFill=0;startArrow=classic;startFill=1;exitX=1;exitY=0.25;exitDx=0;exitDy=0;" edge="1" parent="oFbbETFREsKXqKu5l48W-4">
          <mxGeometry relative="1" as="geometry">
            <mxPoint x="39" y="1371" as="targetPoint" />
            <mxPoint x="-159" y="1370" as="sourcePoint" />
          </mxGeometry>
        </mxCell>
        <mxCell id="U23WQa-dYomXpCL9znLz-96" value="канал найден" style="edgeLabel;html=1;align=center;verticalAlign=middle;resizable=0;points=[];" vertex="1" connectable="0" parent="U23WQa-dYomXpCL9znLz-95">
          <mxGeometry x="0.0981" y="-1" relative="1" as="geometry">
            <mxPoint x="-8" y="-3" as="offset" />
          </mxGeometry>
        </mxCell>
        <mxCell id="oFbbETFREsKXqKu5l48W-5" style="edgeStyle=none;rounded=0;orthogonalLoop=1;jettySize=auto;html=1;endArrow=blockThin;endFill=1;" edge="1" parent="1">
          <mxGeometry relative="1" as="geometry">
            <mxPoint x="1334.9999999999998" y="-962" as="targetPoint" />
            <Array as="points">
              <mxPoint x="1289" y="-963" />
            </Array>
            <mxPoint x="1132" y="-963" as="sourcePoint" />
          </mxGeometry>
        </mxCell>
        <mxCell id="oFbbETFREsKXqKu5l48W-6" value="авторизация(логин, пароль)" style="edgeLabel;html=1;align=center;verticalAlign=middle;resizable=0;points=[];" vertex="1" connectable="0" parent="oFbbETFREsKXqKu5l48W-5">
          <mxGeometry x="0.0981" y="-1" relative="1" as="geometry">
            <mxPoint x="-8" y="-3" as="offset" />
          </mxGeometry>
        </mxCell>
        <mxCell id="oFbbETFREsKXqKu5l48W-7" value="Otium:UI&amp;nbsp;" style="shape=umlLifeline;perimeter=lifelinePerimeter;whiteSpace=wrap;html=1;container=0;collapsible=0;recursiveResize=0;outlineConnect=0;" vertex="1" parent="1">
          <mxGeometry x="1076" y="-1060" width="100" height="2380" as="geometry" />
        </mxCell>
        <mxCell id="oFbbETFREsKXqKu5l48W-8" value=":Пользователь&amp;nbsp;" style="shape=umlLifeline;perimeter=lifelinePerimeter;whiteSpace=wrap;html=1;container=1;collapsible=0;recursiveResize=0;outlineConnect=0;" vertex="1" parent="1">
          <mxGeometry x="1290" y="-1060" width="100" height="2380" as="geometry" />
        </mxCell>
        <mxCell id="U23WQa-dYomXpCL9znLz-9" value="" style="html=1;dashed=0;whiteSpace=wrap;" vertex="1" parent="oFbbETFREsKXqKu5l48W-8">
          <mxGeometry x="45" y="85" width="10" height="165" as="geometry" />
        </mxCell>
        <mxCell id="U23WQa-dYomXpCL9znLz-61" value="" style="html=1;dashed=0;whiteSpace=wrap;" vertex="1" parent="oFbbETFREsKXqKu5l48W-8">
          <mxGeometry x="45" y="350" width="10" height="250" as="geometry" />
        </mxCell>
        <mxCell id="U23WQa-dYomXpCL9znLz-87" value="" style="html=1;dashed=0;whiteSpace=wrap;" vertex="1" parent="oFbbETFREsKXqKu5l48W-8">
          <mxGeometry x="45" y="1300" width="10" height="360" as="geometry" />
        </mxCell>
        <mxCell id="U23WQa-dYomXpCL9znLz-90" style="edgeStyle=none;rounded=0;orthogonalLoop=1;jettySize=auto;html=1;endArrow=classic;endFill=1;startArrow=none;startFill=0;exitX=1;exitY=0.28;exitDx=0;exitDy=0;exitPerimeter=0;" edge="1" parent="oFbbETFREsKXqKu5l48W-8">
          <mxGeometry relative="1" as="geometry">
            <mxPoint x="250" y="1330" as="targetPoint" />
            <Array as="points">
              <mxPoint x="206" y="1330.71" />
            </Array>
            <mxPoint x="50" y="1330.71" as="sourcePoint" />
          </mxGeometry>
        </mxCell>
        <mxCell id="U23WQa-dYomXpCL9znLz-91" value="поиск канала" style="edgeLabel;html=1;align=center;verticalAlign=middle;resizable=0;points=[];" vertex="1" connectable="0" parent="U23WQa-dYomXpCL9znLz-90">
          <mxGeometry x="0.0981" y="-1" relative="1" as="geometry">
            <mxPoint x="-8" y="-2" as="offset" />
          </mxGeometry>
        </mxCell>
        <mxCell id="U23WQa-dYomXpCL9znLz-152" style="edgeStyle=none;rounded=0;orthogonalLoop=1;jettySize=auto;html=1;endArrow=classic;endFill=1;startArrow=none;startFill=0;" edge="1" parent="oFbbETFREsKXqKu5l48W-8">
          <mxGeometry relative="1" as="geometry">
            <mxPoint x="40" y="1995" as="targetPoint" />
            <Array as="points">
              <mxPoint x="-7" y="1995.71" />
            </Array>
            <mxPoint x="-160" y="1995" as="sourcePoint" />
          </mxGeometry>
        </mxCell>
        <mxCell id="U23WQa-dYomXpCL9znLz-153" value="поиск канала в избранном" style="edgeLabel;html=1;align=center;verticalAlign=middle;resizable=0;points=[];" vertex="1" connectable="0" parent="U23WQa-dYomXpCL9znLz-152">
          <mxGeometry x="0.0981" y="-1" relative="1" as="geometry">
            <mxPoint x="-8" y="-3" as="offset" />
          </mxGeometry>
        </mxCell>
        <mxCell id="U23WQa-dYomXpCL9znLz-147" value="" style="html=1;dashed=0;whiteSpace=wrap;" vertex="1" parent="oFbbETFREsKXqKu5l48W-8">
          <mxGeometry x="45" y="1980" width="10" height="150" as="geometry" />
        </mxCell>
        <mxCell id="U23WQa-dYomXpCL9znLz-173" style="edgeStyle=none;rounded=0;orthogonalLoop=1;jettySize=auto;html=1;endArrow=none;endFill=0;startArrow=classic;startFill=1;dashed=1;entryX=0;entryY=0.393;entryDx=0;entryDy=0;entryPerimeter=0;" edge="1" parent="oFbbETFREsKXqKu5l48W-8">
          <mxGeometry relative="1" as="geometry">
            <mxPoint x="258.5" y="1190" as="targetPoint" />
            <Array as="points">
              <mxPoint x="182.67000000000007" y="1190.71" />
            </Array>
            <mxPoint x="55" y="1190" as="sourcePoint" />
          </mxGeometry>
        </mxCell>
        <mxCell id="U23WQa-dYomXpCL9znLz-174" value="канал не найден" style="edgeLabel;html=1;align=center;verticalAlign=middle;resizable=0;points=[];" vertex="1" connectable="0" parent="U23WQa-dYomXpCL9znLz-173">
          <mxGeometry x="0.0981" y="-1" relative="1" as="geometry">
            <mxPoint x="-8" y="-3" as="offset" />
          </mxGeometry>
        </mxCell>
        <mxCell id="U23WQa-dYomXpCL9znLz-177" style="edgeStyle=none;rounded=0;orthogonalLoop=1;jettySize=auto;html=1;endArrow=none;endFill=0;startArrow=classic;startFill=1;entryX=0;entryY=0.393;entryDx=0;entryDy=0;entryPerimeter=0;dashed=1;" edge="1" parent="oFbbETFREsKXqKu5l48W-8">
          <mxGeometry relative="1" as="geometry">
            <mxPoint x="258.5" y="1640" as="targetPoint" />
            <Array as="points">
              <mxPoint x="182.67000000000007" y="1640.71" />
            </Array>
            <mxPoint x="55" y="1640" as="sourcePoint" />
          </mxGeometry>
        </mxCell>
        <mxCell id="U23WQa-dYomXpCL9znLz-178" value="канал не найден" style="edgeLabel;html=1;align=center;verticalAlign=middle;resizable=0;points=[];" vertex="1" connectable="0" parent="U23WQa-dYomXpCL9znLz-177">
          <mxGeometry x="0.0981" y="-1" relative="1" as="geometry">
            <mxPoint x="-8" y="-3" as="offset" />
          </mxGeometry>
        </mxCell>
        <mxCell id="W0ff3i4siTfIfyOrShSM-24" style="edgeStyle=none;rounded=0;orthogonalLoop=1;jettySize=auto;html=1;endArrow=classic;endFill=1;startArrow=none;startFill=0;" edge="1" parent="oFbbETFREsKXqKu5l48W-8">
          <mxGeometry relative="1" as="geometry">
            <mxPoint x="464" y="530" as="targetPoint" />
            <Array as="points">
              <mxPoint x="208" y="530" />
            </Array>
            <mxPoint x="55" y="530" as="sourcePoint" />
          </mxGeometry>
        </mxCell>
        <mxCell id="W0ff3i4siTfIfyOrShSM-25" value="&lt;font style=&quot;font-size: 10px;&quot;&gt;оформить подписку&lt;/font&gt;" style="edgeLabel;html=1;align=center;verticalAlign=middle;resizable=0;points=[];" connectable="0" vertex="1" parent="W0ff3i4siTfIfyOrShSM-24">
          <mxGeometry x="0.0981" y="-1" relative="1" as="geometry">
            <mxPoint x="-8" y="-3" as="offset" />
          </mxGeometry>
        </mxCell>
        <mxCell id="oFbbETFREsKXqKu5l48W-9" value="&lt;h1 style=&quot;font-size: 30px;&quot;&gt;&lt;span style=&quot;font-size: 30px;&quot;&gt;Диаграмма&amp;nbsp;последовательности&lt;/span&gt;&lt;/h1&gt;" style="text;html=1;strokeColor=#FF8000;fillColor=#FFE6CC;spacing=5;spacingTop=-20;whiteSpace=wrap;overflow=hidden;rounded=0;fontSize=30;align=center;" vertex="1" parent="1">
          <mxGeometry x="880" y="-1150" width="710" height="60" as="geometry" />
        </mxCell>
        <mxCell id="oFbbETFREsKXqKu5l48W-11" value="&lt;h1&gt;&lt;font style=&quot;font-size: 40px;&quot;&gt;Задание&lt;/font&gt;&lt;/h1&gt;&lt;p style=&quot;font-size: 20px;&quot;&gt;&lt;font style=&quot;font-size: 20px;&quot;&gt;Составьте диаграмму последовательности в нотации.&lt;/font&gt;&lt;/p&gt;&lt;p style=&quot;font-size: 20px;&quot;&gt;&lt;font style=&quot;font-size: 20px;&quot;&gt;1. Проанализируйте существующее API, которое включает в себя следующий сценарий: авторизация пользователя для доступа к медиатеке, просмотр медиатеки фильмов и получении информации о нужном фильме и работе пользователя с избранными фильмами.&amp;nbsp;&lt;/font&gt;&lt;/p&gt;&lt;p style=&quot;font-size: 20px;&quot;&gt;&lt;font style=&quot;font-size: 20px;&quot;&gt;2. Вам необходимо построить диаграмму последовательностях для телеканалов по аналогии с сценарием взаимодействия пользователя с фильмами. Справа вы видите начало диаграммы, где уже выделен актор, объекты и обозначены несколько сообщений.&lt;/font&gt;&lt;/p&gt;&lt;p style=&quot;font-size: 20px;&quot;&gt;&lt;font style=&quot;font-size: 20px;&quot;&gt;3. Добавьте на диаграмму следующие действия, которые может выполнить пользователь:&amp;nbsp;&lt;/font&gt;&lt;/p&gt;&lt;ul style=&quot;font-size: 18px;&quot;&gt;&lt;li&gt;авторизоваться в системе&lt;/li&gt;&lt;li&gt;познакомиться с библиотекой телеканалов&lt;/li&gt;&lt;li&gt;прочитать подробную информацию о телеканале&lt;/li&gt;&lt;li&gt;добавить в избранное телеканал (это действие возможно выполнить только с детальной страницы).&lt;/li&gt;&lt;li&gt;посмотреть список избранных телеканалов&lt;/li&gt;&lt;li&gt;удалить телеканал из списка избранного&lt;/li&gt;&lt;/ul&gt;&lt;p style=&quot;font-size: 20px;&quot;&gt;&lt;font style=&quot;font-size: 20px;&quot;&gt;&amp;nbsp;Не забудьте отметить фокус управления.&lt;/font&gt;&lt;/p&gt;&lt;p style=&quot;font-size: 20px;&quot;&gt;&lt;font style=&quot;font-size: 20px;&quot;&gt;4.Если вам не хватает информации в задании, то вы можете ее самостоятельно добавить в виде допущения.&lt;/font&gt;&lt;/p&gt;&lt;p style=&quot;font-size: 20px;&quot;&gt;&lt;i&gt;&lt;font style=&quot;font-size: 20px;&quot;&gt;Помните, что вы всегда можете оставить дополнительную информацию со своими размышлениями ревьюеру в виде пометок. Просто возьмите одну из карточек ниже.&amp;nbsp;&lt;/font&gt;&lt;/i&gt;&lt;/p&gt;&lt;p style=&quot;font-size: 20px;&quot;&gt;&lt;font style=&quot;font-size: 20px;&quot;&gt;5. Когда диаграмма последовательности будет готова, сохраните полученный файл в формате .drawio.&lt;/font&gt;&lt;/p&gt;" style="text;html=1;strokeColor=#82b366;fillColor=#d5e8d4;spacing=5;spacingTop=-20;whiteSpace=wrap;overflow=hidden;rounded=0;fontSize=16;" vertex="1" parent="1">
          <mxGeometry x="70" y="-1130" width="600" height="910" as="geometry" />
        </mxCell>
        <mxCell id="U23WQa-dYomXpCL9znLz-10" style="edgeStyle=none;rounded=0;orthogonalLoop=1;jettySize=auto;html=1;endArrow=none;endFill=0;startArrow=classic;startFill=1;dashed=1;" edge="1" parent="1">
          <mxGeometry relative="1" as="geometry">
            <mxPoint x="1335" y="-930" as="targetPoint" />
            <Array as="points">
              <mxPoint x="1290.5" y="-930" />
            </Array>
            <mxPoint x="1130" y="-929" as="sourcePoint" />
          </mxGeometry>
        </mxCell>
        <mxCell id="U23WQa-dYomXpCL9znLz-11" value="авторизация пройдена" style="edgeLabel;html=1;align=center;verticalAlign=middle;resizable=0;points=[];" vertex="1" connectable="0" parent="U23WQa-dYomXpCL9znLz-10">
          <mxGeometry x="0.0981" y="-1" relative="1" as="geometry">
            <mxPoint x="-8" y="-3" as="offset" />
          </mxGeometry>
        </mxCell>
        <mxCell id="U23WQa-dYomXpCL9znLz-12" style="edgeStyle=none;rounded=0;orthogonalLoop=1;jettySize=auto;html=1;endArrow=none;endFill=0;startArrow=classic;startFill=1;dashed=1;" edge="1" parent="1">
          <mxGeometry relative="1" as="geometry">
            <mxPoint x="1120" y="-890" as="targetPoint" />
            <Array as="points">
              <mxPoint x="1075" y="-890" />
            </Array>
            <mxPoint x="924" y="-890" as="sourcePoint" />
          </mxGeometry>
        </mxCell>
        <mxCell id="U23WQa-dYomXpCL9znLz-13" value="авторизация пройдена" style="edgeLabel;html=1;align=center;verticalAlign=middle;resizable=0;points=[];" vertex="1" connectable="0" parent="U23WQa-dYomXpCL9znLz-12">
          <mxGeometry x="0.0981" y="-1" relative="1" as="geometry">
            <mxPoint x="-8" y="-3" as="offset" />
          </mxGeometry>
        </mxCell>
        <mxCell id="U23WQa-dYomXpCL9znLz-14" style="edgeStyle=none;rounded=0;orthogonalLoop=1;jettySize=auto;html=1;endArrow=classic;endFill=1;startArrow=none;startFill=0;" edge="1" parent="1">
          <mxGeometry relative="1" as="geometry">
            <mxPoint x="1122" y="-770" as="targetPoint" />
            <Array as="points">
              <mxPoint x="1083" y="-770" />
            </Array>
            <mxPoint x="925" y="-770" as="sourcePoint" />
          </mxGeometry>
        </mxCell>
        <mxCell id="U23WQa-dYomXpCL9znLz-15" value="&lt;font style=&quot;font-size: 8px;&quot;&gt;запрос каналов по заданным параметрам&lt;/font&gt;" style="edgeLabel;html=1;align=center;verticalAlign=middle;resizable=0;points=[];" vertex="1" connectable="0" parent="U23WQa-dYomXpCL9znLz-14">
          <mxGeometry x="0.0981" y="-1" relative="1" as="geometry">
            <mxPoint x="-8" y="-3" as="offset" />
          </mxGeometry>
        </mxCell>
        <mxCell id="U23WQa-dYomXpCL9znLz-17" style="edgeStyle=none;rounded=0;orthogonalLoop=1;jettySize=auto;html=1;endArrow=classic;endFill=1;startArrow=none;startFill=0;exitX=1;exitY=0.28;exitDx=0;exitDy=0;exitPerimeter=0;" edge="1" parent="1">
          <mxGeometry relative="1" as="geometry">
            <mxPoint x="1540" y="-741" as="targetPoint" />
            <Array as="points">
              <mxPoint x="1289" y="-740" />
            </Array>
            <mxPoint x="1133" y="-740" as="sourcePoint" />
          </mxGeometry>
        </mxCell>
        <mxCell id="U23WQa-dYomXpCL9znLz-18" value="&lt;font style=&quot;font-size: 9px;&quot;&gt;запрос каналов по заданным параметрам&lt;/font&gt;" style="edgeLabel;html=1;align=center;verticalAlign=middle;resizable=0;points=[];" vertex="1" connectable="0" parent="U23WQa-dYomXpCL9znLz-17">
          <mxGeometry x="0.0981" y="-1" relative="1" as="geometry">
            <mxPoint x="-8" y="-3" as="offset" />
          </mxGeometry>
        </mxCell>
        <mxCell id="U23WQa-dYomXpCL9znLz-22" style="edgeStyle=none;rounded=0;orthogonalLoop=1;jettySize=auto;html=1;endArrow=none;endFill=0;startArrow=classic;startFill=1;exitX=1;exitY=0.28;exitDx=0;exitDy=0;exitPerimeter=0;dashed=1;" edge="1" parent="1">
          <mxGeometry relative="1" as="geometry">
            <mxPoint x="1121.5" y="-629" as="targetPoint" />
            <Array as="points">
              <mxPoint x="1081" y="-630" />
            </Array>
            <mxPoint x="925" y="-630" as="sourcePoint" />
          </mxGeometry>
        </mxCell>
        <mxCell id="U23WQa-dYomXpCL9znLz-23" value="&lt;font style=&quot;font-size: 8px;&quot;&gt;список каналов с заданными параметрами&lt;/font&gt;" style="edgeLabel;html=1;align=center;verticalAlign=middle;resizable=0;points=[];" vertex="1" connectable="0" parent="U23WQa-dYomXpCL9znLz-22">
          <mxGeometry x="0.0981" y="-1" relative="1" as="geometry">
            <mxPoint x="-6" y="-1" as="offset" />
          </mxGeometry>
        </mxCell>
        <mxCell id="U23WQa-dYomXpCL9znLz-24" value="" style="html=1;dashed=0;whiteSpace=wrap;" vertex="1" parent="1">
          <mxGeometry x="710" y="-800" width="10" height="570" as="geometry" />
        </mxCell>
        <mxCell id="U23WQa-dYomXpCL9znLz-28" style="edgeStyle=none;rounded=0;orthogonalLoop=1;jettySize=auto;html=1;endArrow=classic;endFill=1;startArrow=none;startFill=0;exitX=1;exitY=0.28;exitDx=0;exitDy=0;exitPerimeter=0;" edge="1" parent="1">
          <mxGeometry relative="1" as="geometry">
            <mxPoint x="1118.5" y="239.71000000000004" as="targetPoint" />
            <Array as="points">
              <mxPoint x="1079.5" y="239.71000000000004" />
            </Array>
            <mxPoint x="923.5" y="239.71000000000004" as="sourcePoint" />
          </mxGeometry>
        </mxCell>
        <mxCell id="U23WQa-dYomXpCL9znLz-29" value="&lt;font style=&quot;font-size: 10px;&quot;&gt;добавление канала в избранное&lt;br&gt;&lt;/font&gt;" style="edgeLabel;html=1;align=center;verticalAlign=middle;resizable=0;points=[];" vertex="1" connectable="0" parent="U23WQa-dYomXpCL9znLz-28">
          <mxGeometry x="0.0981" y="-1" relative="1" as="geometry">
            <mxPoint x="-8" y="-3" as="offset" />
          </mxGeometry>
        </mxCell>
        <mxCell id="U23WQa-dYomXpCL9znLz-30" style="edgeStyle=none;rounded=0;orthogonalLoop=1;jettySize=auto;html=1;endArrow=classic;endFill=1;startArrow=none;startFill=0;exitX=1;exitY=0.28;exitDx=0;exitDy=0;exitPerimeter=0;" edge="1" parent="1">
          <mxGeometry relative="1" as="geometry">
            <mxPoint x="1331.5" y="249" as="targetPoint" />
            <Array as="points">
              <mxPoint x="1284.5" y="249.71000000000004" />
            </Array>
            <mxPoint x="1128.5" y="249.71000000000004" as="sourcePoint" />
          </mxGeometry>
        </mxCell>
        <mxCell id="U23WQa-dYomXpCL9znLz-31" value="&lt;font style=&quot;font-size: 10px;&quot;&gt;добавление канала в избранное&lt;br&gt;&lt;/font&gt;" style="edgeLabel;html=1;align=center;verticalAlign=middle;resizable=0;points=[];" vertex="1" connectable="0" parent="U23WQa-dYomXpCL9znLz-30">
          <mxGeometry x="0.0981" y="-1" relative="1" as="geometry">
            <mxPoint x="-8" y="-3" as="offset" />
          </mxGeometry>
        </mxCell>
        <mxCell id="U23WQa-dYomXpCL9znLz-42" style="edgeStyle=none;rounded=0;orthogonalLoop=1;jettySize=auto;html=1;endArrow=none;endFill=0;startArrow=classic;startFill=1;exitX=0.914;exitY=0.478;exitDx=0;exitDy=0;exitPerimeter=0;dashed=1;" edge="1" parent="1">
          <mxGeometry relative="1" as="geometry">
            <mxPoint x="1115.86" y="391.5" as="targetPoint" />
            <Array as="points">
              <mxPoint x="1081.86" y="392.21000000000004" />
            </Array>
            <mxPoint x="920.0000000000003" y="390" as="sourcePoint" />
          </mxGeometry>
        </mxCell>
        <mxCell id="U23WQa-dYomXpCL9znLz-43" value="канал добавлен в избранное" style="edgeLabel;html=1;align=center;verticalAlign=middle;resizable=0;points=[];" vertex="1" connectable="0" parent="U23WQa-dYomXpCL9znLz-42">
          <mxGeometry x="0.0981" y="-1" relative="1" as="geometry">
            <mxPoint x="-8" y="-3" as="offset" />
          </mxGeometry>
        </mxCell>
        <mxCell id="U23WQa-dYomXpCL9znLz-8" value="" style="html=1;dashed=0;whiteSpace=wrap;" vertex="1" parent="1">
          <mxGeometry x="1121" y="-994" width="10" height="184" as="geometry" />
        </mxCell>
        <mxCell id="U23WQa-dYomXpCL9znLz-25" value="" style="html=1;dashed=0;whiteSpace=wrap;" vertex="1" parent="1">
          <mxGeometry x="1121" y="-780" width="10" height="380" as="geometry" />
        </mxCell>
        <mxCell id="U23WQa-dYomXpCL9znLz-40" style="edgeStyle=none;rounded=0;orthogonalLoop=1;jettySize=auto;html=1;endArrow=none;endFill=0;startArrow=classic;startFill=1;dashed=1;entryX=0;entryY=0.393;entryDx=0;entryDy=0;entryPerimeter=0;" edge="1" parent="1">
          <mxGeometry relative="1" as="geometry">
            <mxPoint x="1330" y="360.03999999999996" as="targetPoint" />
            <Array as="points">
              <mxPoint x="1254.17" y="360.71000000000004" />
            </Array>
            <mxPoint x="1126.5" y="360" as="sourcePoint" />
          </mxGeometry>
        </mxCell>
        <mxCell id="U23WQa-dYomXpCL9znLz-41" value="канал добавлен в избранное" style="edgeLabel;html=1;align=center;verticalAlign=middle;resizable=0;points=[];" vertex="1" connectable="0" parent="U23WQa-dYomXpCL9znLz-40">
          <mxGeometry x="0.0981" y="-1" relative="1" as="geometry">
            <mxPoint x="-8" y="-3" as="offset" />
          </mxGeometry>
        </mxCell>
        <mxCell id="U23WQa-dYomXpCL9znLz-58" style="edgeStyle=none;rounded=0;orthogonalLoop=1;jettySize=auto;html=1;endArrow=none;endFill=0;startArrow=classic;startFill=1;dashed=1;" edge="1" parent="1">
          <mxGeometry relative="1" as="geometry">
            <mxPoint x="1121" y="-850.29" as="targetPoint" />
            <Array as="points">
              <mxPoint x="1076" y="-850.29" />
            </Array>
            <mxPoint x="925" y="-850.29" as="sourcePoint" />
          </mxGeometry>
        </mxCell>
        <mxCell id="U23WQa-dYomXpCL9znLz-59" value="авторизация не пройдена" style="edgeLabel;html=1;align=center;verticalAlign=middle;resizable=0;points=[];" vertex="1" connectable="0" parent="U23WQa-dYomXpCL9znLz-58">
          <mxGeometry x="0.0981" y="-1" relative="1" as="geometry">
            <mxPoint x="-8" y="-3" as="offset" />
          </mxGeometry>
        </mxCell>
        <mxCell id="U23WQa-dYomXpCL9znLz-69" style="edgeStyle=none;rounded=0;orthogonalLoop=1;jettySize=auto;html=1;endArrow=none;endFill=0;startArrow=classic;startFill=1;exitX=1;exitY=0.28;exitDx=0;exitDy=0;exitPerimeter=0;dashed=1;entryX=-0.028;entryY=0.621;entryDx=0;entryDy=0;entryPerimeter=0;" edge="1" parent="1">
          <mxGeometry relative="1" as="geometry">
            <mxPoint x="1333" y="-650" as="targetPoint" />
            <Array as="points">
              <mxPoint x="1287" y="-650.34" />
            </Array>
            <mxPoint x="1131" y="-650.34" as="sourcePoint" />
          </mxGeometry>
        </mxCell>
        <mxCell id="U23WQa-dYomXpCL9znLz-70" value="&lt;font style=&quot;font-size: 9px;&quot;&gt;список каналов с заданными параметрами&lt;/font&gt;" style="edgeLabel;html=1;align=center;verticalAlign=middle;resizable=0;points=[];" vertex="1" connectable="0" parent="U23WQa-dYomXpCL9znLz-69">
          <mxGeometry x="0.0981" y="-1" relative="1" as="geometry">
            <mxPoint x="-8" y="-3" as="offset" />
          </mxGeometry>
        </mxCell>
        <mxCell id="U23WQa-dYomXpCL9znLz-72" style="edgeStyle=none;rounded=0;orthogonalLoop=1;jettySize=auto;html=1;endArrow=none;endFill=0;startArrow=classic;startFill=1;exitX=1;exitY=0.28;exitDx=0;exitDy=0;exitPerimeter=0;dashed=1;entryX=-0.028;entryY=0.621;entryDx=0;entryDy=0;entryPerimeter=0;" edge="1" parent="1">
          <mxGeometry relative="1" as="geometry">
            <mxPoint x="1333.5" y="-589.66" as="targetPoint" />
            <Array as="points">
              <mxPoint x="1287.5" y="-590" />
            </Array>
            <mxPoint x="1131.5" y="-590" as="sourcePoint" />
          </mxGeometry>
        </mxCell>
        <mxCell id="U23WQa-dYomXpCL9znLz-73" value="&lt;font style=&quot;font-size: 10px;&quot;&gt;предложить подписаться на каналы&lt;/font&gt;" style="edgeLabel;html=1;align=center;verticalAlign=middle;resizable=0;points=[];" vertex="1" connectable="0" parent="U23WQa-dYomXpCL9znLz-72">
          <mxGeometry x="0.0981" y="-1" relative="1" as="geometry">
            <mxPoint x="-8" y="-3" as="offset" />
          </mxGeometry>
        </mxCell>
        <mxCell id="U23WQa-dYomXpCL9znLz-74" style="edgeStyle=none;rounded=0;orthogonalLoop=1;jettySize=auto;html=1;endArrow=none;endFill=0;startArrow=classic;startFill=1;dashed=1;" edge="1" parent="1">
          <mxGeometry relative="1" as="geometry">
            <mxPoint x="1120" y="-570" as="targetPoint" />
            <Array as="points">
              <mxPoint x="1085" y="-570" />
            </Array>
            <mxPoint x="930" y="-570" as="sourcePoint" />
          </mxGeometry>
        </mxCell>
        <mxCell id="U23WQa-dYomXpCL9znLz-75" value="&lt;font style=&quot;font-size: 9px;&quot;&gt;предложить подписаться на каналы&lt;/font&gt;" style="edgeLabel;html=1;align=center;verticalAlign=middle;resizable=0;points=[];" vertex="1" connectable="0" parent="U23WQa-dYomXpCL9znLz-74">
          <mxGeometry x="0.0981" y="-1" relative="1" as="geometry">
            <mxPoint x="-8" y="-3" as="offset" />
          </mxGeometry>
        </mxCell>
        <mxCell id="U23WQa-dYomXpCL9znLz-80" style="edgeStyle=none;rounded=0;orthogonalLoop=1;jettySize=auto;html=1;endArrow=none;endFill=0;startArrow=classic;startFill=1;exitX=1.2;exitY=0.864;exitDx=0;exitDy=0;exitPerimeter=0;dashed=1;" edge="1" parent="1">
          <mxGeometry relative="1" as="geometry">
            <mxPoint x="1540" y="-421" as="targetPoint" />
            <Array as="points" />
            <mxPoint x="1133" y="-420.31999999999994" as="sourcePoint" />
          </mxGeometry>
        </mxCell>
        <mxCell id="U23WQa-dYomXpCL9znLz-81" value="каналы по запросу не найдены" style="edgeLabel;html=1;align=center;verticalAlign=middle;resizable=0;points=[];" vertex="1" connectable="0" parent="U23WQa-dYomXpCL9znLz-80">
          <mxGeometry x="0.0981" y="-1" relative="1" as="geometry">
            <mxPoint x="-8" y="-3" as="offset" />
          </mxGeometry>
        </mxCell>
        <mxCell id="U23WQa-dYomXpCL9znLz-82" style="edgeStyle=none;rounded=0;orthogonalLoop=1;jettySize=auto;html=1;endArrow=none;endFill=0;startArrow=classic;startFill=1;dashed=1;" edge="1" parent="1">
          <mxGeometry relative="1" as="geometry">
            <mxPoint x="1120" y="-430" as="targetPoint" />
            <Array as="points" />
            <mxPoint x="925" y="-430" as="sourcePoint" />
          </mxGeometry>
        </mxCell>
        <mxCell id="U23WQa-dYomXpCL9znLz-83" value="каналы по запросу не найдены" style="edgeLabel;html=1;align=center;verticalAlign=middle;resizable=0;points=[];" vertex="1" connectable="0" parent="U23WQa-dYomXpCL9znLz-82">
          <mxGeometry x="0.0981" y="-1" relative="1" as="geometry">
            <mxPoint x="-8" y="-3" as="offset" />
          </mxGeometry>
        </mxCell>
        <mxCell id="U23WQa-dYomXpCL9znLz-84" value="&lt;h1 style=&quot;font-size: 20px;&quot;&gt;&lt;font style=&quot;font-size: 20px;&quot;&gt;Заметка для ревьюера&lt;/font&gt;&lt;/h1&gt;В принципе, полагаю, можно пропускать запрос через сервис &quot;Пользователь&quot;, если в профиле заданы жёсткие фильтры контента - родительский контроль, региональные фильтры и т.д." style="text;html=1;strokeColor=#d6b656;fillColor=#fff2cc;spacing=5;spacingTop=-20;whiteSpace=wrap;overflow=hidden;rounded=0;fontSize=20;" vertex="1" parent="1">
          <mxGeometry x="1820" y="-750" width="370" height="220" as="geometry" />
        </mxCell>
        <mxCell id="U23WQa-dYomXpCL9znLz-86" value="&lt;h1 style=&quot;font-size: 20px;&quot;&gt;&lt;font style=&quot;font-size: 20px;&quot;&gt;Заметка для ревьюера&lt;/font&gt;&lt;/h1&gt;&lt;p style=&quot;font-size: 20px;&quot;&gt;Полагаю, в данном случае просмотр библиотеки - это запрос всех каналов без фильтра по жанрам.&lt;br&gt;&lt;/p&gt;" style="text;html=1;strokeColor=#d6b656;fillColor=#fff2cc;spacing=5;spacingTop=-20;whiteSpace=wrap;overflow=hidden;rounded=0;fontSize=20;" vertex="1" parent="1">
          <mxGeometry x="2210" y="-730" width="370" height="170" as="geometry" />
        </mxCell>
        <mxCell id="U23WQa-dYomXpCL9znLz-102" style="edgeStyle=none;rounded=0;orthogonalLoop=1;jettySize=auto;html=1;endArrow=none;endFill=0;startArrow=classic;startFill=1;dashed=1;entryX=0;entryY=0.393;entryDx=0;entryDy=0;entryPerimeter=0;" edge="1" parent="1">
          <mxGeometry relative="1" as="geometry">
            <mxPoint x="1330" y="430" as="targetPoint" />
            <Array as="points">
              <mxPoint x="1254.17" y="430.71000000000004" />
            </Array>
            <mxPoint x="1126.5" y="430" as="sourcePoint" />
          </mxGeometry>
        </mxCell>
        <mxCell id="U23WQa-dYomXpCL9znLz-103" value="канал недоступен" style="edgeLabel;html=1;align=center;verticalAlign=middle;resizable=0;points=[];" vertex="1" connectable="0" parent="U23WQa-dYomXpCL9znLz-102">
          <mxGeometry x="0.0981" y="-1" relative="1" as="geometry">
            <mxPoint x="-8" y="-3" as="offset" />
          </mxGeometry>
        </mxCell>
        <mxCell id="U23WQa-dYomXpCL9znLz-104" style="edgeStyle=none;rounded=0;orthogonalLoop=1;jettySize=auto;html=1;endArrow=none;endFill=0;startArrow=classic;startFill=1;dashed=1;" edge="1" parent="1">
          <mxGeometry relative="1" as="geometry">
            <mxPoint x="1115" y="460" as="targetPoint" />
            <Array as="points">
              <mxPoint x="1047.67" y="460.71000000000004" />
            </Array>
            <mxPoint x="920" y="460" as="sourcePoint" />
          </mxGeometry>
        </mxCell>
        <mxCell id="U23WQa-dYomXpCL9znLz-105" value="канал недоступен" style="edgeLabel;html=1;align=center;verticalAlign=middle;resizable=0;points=[];" vertex="1" connectable="0" parent="U23WQa-dYomXpCL9znLz-104">
          <mxGeometry x="0.0981" y="-1" relative="1" as="geometry">
            <mxPoint x="-8" y="-3" as="offset" />
          </mxGeometry>
        </mxCell>
        <mxCell id="U23WQa-dYomXpCL9znLz-109" style="edgeStyle=none;rounded=0;orthogonalLoop=1;jettySize=auto;html=1;endArrow=none;endFill=0;startArrow=classic;startFill=1;dashed=1;entryX=0;entryY=0.393;entryDx=0;entryDy=0;entryPerimeter=0;" edge="1" parent="1">
          <mxGeometry relative="1" as="geometry">
            <mxPoint x="1334.5" y="590" as="targetPoint" />
            <Array as="points">
              <mxPoint x="1258.67" y="590.71" />
            </Array>
            <mxPoint x="1131" y="590" as="sourcePoint" />
          </mxGeometry>
        </mxCell>
        <mxCell id="U23WQa-dYomXpCL9znLz-110" value="канал не найден" style="edgeLabel;html=1;align=center;verticalAlign=middle;resizable=0;points=[];" vertex="1" connectable="0" parent="U23WQa-dYomXpCL9znLz-109">
          <mxGeometry x="0.0981" y="-1" relative="1" as="geometry">
            <mxPoint x="-8" y="-3" as="offset" />
          </mxGeometry>
        </mxCell>
        <mxCell id="U23WQa-dYomXpCL9znLz-111" style="edgeStyle=none;rounded=0;orthogonalLoop=1;jettySize=auto;html=1;endArrow=none;endFill=0;startArrow=classic;startFill=1;dashed=1;" edge="1" parent="1">
          <mxGeometry relative="1" as="geometry">
            <mxPoint x="1115" y="600" as="targetPoint" />
            <Array as="points">
              <mxPoint x="1047.67" y="600.71" />
            </Array>
            <mxPoint x="920" y="600" as="sourcePoint" />
          </mxGeometry>
        </mxCell>
        <mxCell id="U23WQa-dYomXpCL9znLz-112" value="канал не найден" style="edgeLabel;html=1;align=center;verticalAlign=middle;resizable=0;points=[];" vertex="1" connectable="0" parent="U23WQa-dYomXpCL9znLz-111">
          <mxGeometry x="0.0981" y="-1" relative="1" as="geometry">
            <mxPoint x="-8" y="-3" as="offset" />
          </mxGeometry>
        </mxCell>
        <mxCell id="U23WQa-dYomXpCL9znLz-113" style="edgeStyle=none;rounded=0;orthogonalLoop=1;jettySize=auto;html=1;endArrow=classic;endFill=1;startArrow=none;startFill=0;exitX=1;exitY=0.28;exitDx=0;exitDy=0;exitPerimeter=0;" edge="1" parent="1">
          <mxGeometry relative="1" as="geometry">
            <mxPoint x="1121.5" y="-229.99999999999994" as="targetPoint" />
            <Array as="points">
              <mxPoint x="1082.5" y="-229.99999999999994" />
            </Array>
            <mxPoint x="926.5" y="-229.99999999999994" as="sourcePoint" />
          </mxGeometry>
        </mxCell>
        <mxCell id="U23WQa-dYomXpCL9znLz-114" value="запрос информации о канале" style="edgeLabel;html=1;align=center;verticalAlign=middle;resizable=0;points=[];" vertex="1" connectable="0" parent="U23WQa-dYomXpCL9znLz-113">
          <mxGeometry x="0.0981" y="-1" relative="1" as="geometry">
            <mxPoint x="-8" y="-3" as="offset" />
          </mxGeometry>
        </mxCell>
        <mxCell id="U23WQa-dYomXpCL9znLz-115" value="" style="html=1;dashed=0;whiteSpace=wrap;" vertex="1" parent="1">
          <mxGeometry x="1121.5" y="-250" width="10" height="430" as="geometry" />
        </mxCell>
        <mxCell id="U23WQa-dYomXpCL9znLz-122" style="edgeStyle=none;rounded=0;orthogonalLoop=1;jettySize=auto;html=1;endArrow=none;endFill=0;startArrow=classic;startFill=1;exitX=0.914;exitY=0.478;exitDx=0;exitDy=0;exitPerimeter=0;dashed=1;" edge="1" parent="1">
          <mxGeometry relative="1" as="geometry">
            <mxPoint x="1115.86" y="-48.5" as="targetPoint" />
            <Array as="points">
              <mxPoint x="1081.86" y="-47.789999999999964" />
            </Array>
            <mxPoint x="920.0000000000003" y="-50" as="sourcePoint" />
          </mxGeometry>
        </mxCell>
        <mxCell id="U23WQa-dYomXpCL9znLz-123" value="&lt;font style=&quot;font-size: 10px;&quot;&gt;отображение информации о канале&lt;/font&gt;" style="edgeLabel;html=1;align=center;verticalAlign=middle;resizable=0;points=[];" vertex="1" connectable="0" parent="U23WQa-dYomXpCL9znLz-122">
          <mxGeometry x="0.0981" y="-1" relative="1" as="geometry">
            <mxPoint x="-8" y="-3" as="offset" />
          </mxGeometry>
        </mxCell>
        <mxCell id="U23WQa-dYomXpCL9znLz-124" style="edgeStyle=none;rounded=0;orthogonalLoop=1;jettySize=auto;html=1;endArrow=none;endFill=0;startArrow=classic;startFill=1;dashed=1;entryX=0;entryY=0.393;entryDx=0;entryDy=0;entryPerimeter=0;" edge="1" parent="1">
          <mxGeometry relative="1" as="geometry">
            <mxPoint x="1330" y="-79.5" as="targetPoint" />
            <Array as="points">
              <mxPoint x="1254.17" y="-79.28999999999996" />
            </Array>
            <mxPoint x="1126.5" y="-80" as="sourcePoint" />
          </mxGeometry>
        </mxCell>
        <mxCell id="U23WQa-dYomXpCL9znLz-125" value="&lt;font style=&quot;font-size: 10px;&quot;&gt;отображение информации о канале&lt;/font&gt;" style="edgeLabel;html=1;align=center;verticalAlign=middle;resizable=0;points=[];" vertex="1" connectable="0" parent="U23WQa-dYomXpCL9znLz-124">
          <mxGeometry x="0.0981" y="-1" relative="1" as="geometry">
            <mxPoint x="-8" y="-3" as="offset" />
          </mxGeometry>
        </mxCell>
        <mxCell id="U23WQa-dYomXpCL9znLz-126" style="edgeStyle=none;rounded=0;orthogonalLoop=1;jettySize=auto;html=1;endArrow=none;endFill=0;startArrow=classic;startFill=1;exitX=1;exitY=0.25;exitDx=0;exitDy=0;" edge="1" parent="1">
          <mxGeometry relative="1" as="geometry">
            <mxPoint x="1545" y="-139" as="targetPoint" />
            <Array as="points">
              <mxPoint x="1506" y="-138.28999999999996" />
            </Array>
            <mxPoint x="1345" y="-138.07999999999998" as="sourcePoint" />
          </mxGeometry>
        </mxCell>
        <mxCell id="U23WQa-dYomXpCL9znLz-127" value="канал найден" style="edgeLabel;html=1;align=center;verticalAlign=middle;resizable=0;points=[];" vertex="1" connectable="0" parent="U23WQa-dYomXpCL9znLz-126">
          <mxGeometry x="0.0981" y="-1" relative="1" as="geometry">
            <mxPoint x="-8" y="-3" as="offset" />
          </mxGeometry>
        </mxCell>
        <mxCell id="U23WQa-dYomXpCL9znLz-128" style="edgeStyle=none;rounded=0;orthogonalLoop=1;jettySize=auto;html=1;endArrow=none;endFill=0;startArrow=classic;startFill=1;dashed=1;entryX=0;entryY=0.393;entryDx=0;entryDy=0;entryPerimeter=0;" edge="1" parent="1">
          <mxGeometry relative="1" as="geometry">
            <mxPoint x="1330" y="-10" as="targetPoint" />
            <Array as="points">
              <mxPoint x="1254.17" y="-9.289999999999964" />
            </Array>
            <mxPoint x="1126.5" y="-10" as="sourcePoint" />
          </mxGeometry>
        </mxCell>
        <mxCell id="U23WQa-dYomXpCL9znLz-129" value="канал недоступен" style="edgeLabel;html=1;align=center;verticalAlign=middle;resizable=0;points=[];" vertex="1" connectable="0" parent="U23WQa-dYomXpCL9znLz-128">
          <mxGeometry x="0.0981" y="-1" relative="1" as="geometry">
            <mxPoint x="-8" y="-3" as="offset" />
          </mxGeometry>
        </mxCell>
        <mxCell id="U23WQa-dYomXpCL9znLz-130" style="edgeStyle=none;rounded=0;orthogonalLoop=1;jettySize=auto;html=1;endArrow=none;endFill=0;startArrow=classic;startFill=1;dashed=1;" edge="1" parent="1">
          <mxGeometry relative="1" as="geometry">
            <mxPoint x="1115" y="20" as="targetPoint" />
            <Array as="points">
              <mxPoint x="1047.67" y="20.710000000000036" />
            </Array>
            <mxPoint x="920" y="20" as="sourcePoint" />
          </mxGeometry>
        </mxCell>
        <mxCell id="U23WQa-dYomXpCL9znLz-131" value="канал недоступен" style="edgeLabel;html=1;align=center;verticalAlign=middle;resizable=0;points=[];" vertex="1" connectable="0" parent="U23WQa-dYomXpCL9znLz-130">
          <mxGeometry x="0.0981" y="-1" relative="1" as="geometry">
            <mxPoint x="-8" y="-3" as="offset" />
          </mxGeometry>
        </mxCell>
        <mxCell id="U23WQa-dYomXpCL9znLz-132" style="edgeStyle=none;rounded=0;orthogonalLoop=1;jettySize=auto;html=1;endArrow=none;endFill=0;startArrow=classic;startFill=1;dashed=1;entryX=0;entryY=0.393;entryDx=0;entryDy=0;entryPerimeter=0;" edge="1" parent="1">
          <mxGeometry relative="1" as="geometry">
            <mxPoint x="1331.75" y="140" as="targetPoint" />
            <Array as="points">
              <mxPoint x="1255.92" y="140.71000000000004" />
            </Array>
            <mxPoint x="1128.25" y="140" as="sourcePoint" />
          </mxGeometry>
        </mxCell>
        <mxCell id="U23WQa-dYomXpCL9znLz-133" value="канал не найден" style="edgeLabel;html=1;align=center;verticalAlign=middle;resizable=0;points=[];" vertex="1" connectable="0" parent="U23WQa-dYomXpCL9znLz-132">
          <mxGeometry x="0.0981" y="-1" relative="1" as="geometry">
            <mxPoint x="-8" y="-3" as="offset" />
          </mxGeometry>
        </mxCell>
        <mxCell id="U23WQa-dYomXpCL9znLz-134" style="edgeStyle=none;rounded=0;orthogonalLoop=1;jettySize=auto;html=1;endArrow=none;endFill=0;startArrow=classic;startFill=1;dashed=1;" edge="1" parent="1">
          <mxGeometry relative="1" as="geometry">
            <mxPoint x="1115" y="160" as="targetPoint" />
            <Array as="points">
              <mxPoint x="1047.67" y="160.71000000000004" />
            </Array>
            <mxPoint x="920" y="160" as="sourcePoint" />
          </mxGeometry>
        </mxCell>
        <mxCell id="U23WQa-dYomXpCL9znLz-135" value="канал не найден" style="edgeLabel;html=1;align=center;verticalAlign=middle;resizable=0;points=[];" vertex="1" connectable="0" parent="U23WQa-dYomXpCL9znLz-134">
          <mxGeometry x="0.0981" y="-1" relative="1" as="geometry">
            <mxPoint x="-8" y="-3" as="offset" />
          </mxGeometry>
        </mxCell>
        <mxCell id="U23WQa-dYomXpCL9znLz-1" value="" style="html=1;dashed=0;whiteSpace=wrap;" vertex="1" parent="1">
          <mxGeometry x="915" y="-1000" width="10" height="2150" as="geometry" />
        </mxCell>
        <mxCell id="U23WQa-dYomXpCL9znLz-27" value="" style="html=1;dashed=0;whiteSpace=wrap;" vertex="1" parent="1">
          <mxGeometry x="1121.5" y="230" width="10" height="380" as="geometry" />
        </mxCell>
        <mxCell id="U23WQa-dYomXpCL9znLz-138" value="" style="edgeStyle=none;rounded=0;orthogonalLoop=1;jettySize=auto;html=1;endArrow=classic;endFill=1;startArrow=none;startFill=0;exitX=1;exitY=0.28;exitDx=0;exitDy=0;exitPerimeter=0;" edge="1" parent="1" target="U23WQa-dYomXpCL9znLz-137">
          <mxGeometry relative="1" as="geometry">
            <mxPoint x="1535" y="-150" as="targetPoint" />
            <Array as="points" />
            <mxPoint x="1340" y="-149.28999999999996" as="sourcePoint" />
          </mxGeometry>
        </mxCell>
        <mxCell id="U23WQa-dYomXpCL9znLz-137" value="" style="html=1;dashed=0;whiteSpace=wrap;" vertex="1" parent="1">
          <mxGeometry x="1335" y="-190" width="10" height="340" as="geometry" />
        </mxCell>
        <mxCell id="U23WQa-dYomXpCL9znLz-140" style="edgeStyle=none;rounded=0;orthogonalLoop=1;jettySize=auto;html=1;endArrow=classic;endFill=1;startArrow=none;startFill=0;exitX=1;exitY=0.28;exitDx=0;exitDy=0;exitPerimeter=0;" edge="1" parent="1">
          <mxGeometry relative="1" as="geometry">
            <mxPoint x="1541" y="-210" as="targetPoint" />
            <Array as="points">
              <mxPoint x="1287.5" y="-209.99999999999994" />
            </Array>
            <mxPoint x="1131.5" y="-209.99999999999994" as="sourcePoint" />
          </mxGeometry>
        </mxCell>
        <mxCell id="U23WQa-dYomXpCL9znLz-141" value="запрос информации о канале" style="edgeLabel;html=1;align=center;verticalAlign=middle;resizable=0;points=[];" vertex="1" connectable="0" parent="U23WQa-dYomXpCL9znLz-140">
          <mxGeometry x="0.0981" y="-1" relative="1" as="geometry">
            <mxPoint x="-8" y="-3" as="offset" />
          </mxGeometry>
        </mxCell>
        <mxCell id="U23WQa-dYomXpCL9znLz-150" style="edgeStyle=none;rounded=0;orthogonalLoop=1;jettySize=auto;html=1;endArrow=classic;endFill=1;startArrow=none;startFill=0;exitX=1;exitY=0.28;exitDx=0;exitDy=0;exitPerimeter=0;" edge="1" parent="1">
          <mxGeometry relative="1" as="geometry">
            <mxPoint x="1120" y="910" as="targetPoint" />
            <Array as="points">
              <mxPoint x="1081" y="910" />
            </Array>
            <mxPoint x="925" y="910" as="sourcePoint" />
          </mxGeometry>
        </mxCell>
        <mxCell id="U23WQa-dYomXpCL9znLz-151" value="удаление канала из избранного" style="edgeLabel;html=1;align=center;verticalAlign=middle;resizable=0;points=[];" vertex="1" connectable="0" parent="U23WQa-dYomXpCL9znLz-150">
          <mxGeometry x="0.0981" y="-1" relative="1" as="geometry">
            <mxPoint x="-8" y="-3" as="offset" />
          </mxGeometry>
        </mxCell>
        <mxCell id="U23WQa-dYomXpCL9znLz-164" style="edgeStyle=none;rounded=0;orthogonalLoop=1;jettySize=auto;html=1;endArrow=none;endFill=0;startArrow=classic;startFill=1;dashed=1;entryX=0;entryY=0.393;entryDx=0;entryDy=0;entryPerimeter=0;" edge="1" parent="1">
          <mxGeometry relative="1" as="geometry">
            <mxPoint x="1331.75" y="1050" as="targetPoint" />
            <Array as="points">
              <mxPoint x="1255.92" y="1050.71" />
            </Array>
            <mxPoint x="1128.25" y="1050" as="sourcePoint" />
          </mxGeometry>
        </mxCell>
        <mxCell id="U23WQa-dYomXpCL9znLz-165" value="канал не найден" style="edgeLabel;html=1;align=center;verticalAlign=middle;resizable=0;points=[];" vertex="1" connectable="0" parent="U23WQa-dYomXpCL9znLz-164">
          <mxGeometry x="0.0981" y="-1" relative="1" as="geometry">
            <mxPoint x="-8" y="-3" as="offset" />
          </mxGeometry>
        </mxCell>
        <mxCell id="U23WQa-dYomXpCL9znLz-166" style="edgeStyle=none;rounded=0;orthogonalLoop=1;jettySize=auto;html=1;endArrow=none;endFill=0;startArrow=classic;startFill=1;dashed=1;" edge="1" parent="1">
          <mxGeometry relative="1" as="geometry">
            <mxPoint x="1120" y="1070" as="targetPoint" />
            <Array as="points">
              <mxPoint x="1052.67" y="1070.71" />
            </Array>
            <mxPoint x="925" y="1070" as="sourcePoint" />
          </mxGeometry>
        </mxCell>
        <mxCell id="U23WQa-dYomXpCL9znLz-167" value="канал не найден" style="edgeLabel;html=1;align=center;verticalAlign=middle;resizable=0;points=[];" vertex="1" connectable="0" parent="U23WQa-dYomXpCL9znLz-166">
          <mxGeometry x="0.0981" y="-1" relative="1" as="geometry">
            <mxPoint x="-8" y="-3" as="offset" />
          </mxGeometry>
        </mxCell>
        <mxCell id="U23WQa-dYomXpCL9znLz-168" value="" style="html=1;dashed=0;whiteSpace=wrap;" vertex="1" parent="1">
          <mxGeometry x="1119" y="880" width="10" height="220" as="geometry" />
        </mxCell>
        <mxCell id="U23WQa-dYomXpCL9znLz-169" style="edgeStyle=none;rounded=0;orthogonalLoop=1;jettySize=auto;html=1;endArrow=none;endFill=0;startArrow=classic;startFill=1;dashed=1;entryX=0;entryY=0.393;entryDx=0;entryDy=0;entryPerimeter=0;" edge="1" parent="1">
          <mxGeometry relative="1" as="geometry">
            <mxPoint x="1335" y="991.4200000000001" as="targetPoint" />
            <Array as="points">
              <mxPoint x="1259.17" y="992.0900000000001" />
            </Array>
            <mxPoint x="1131.5" y="991.3800000000001" as="sourcePoint" />
          </mxGeometry>
        </mxCell>
        <mxCell id="U23WQa-dYomXpCL9znLz-170" value="удаление канала из избранного" style="edgeLabel;html=1;align=center;verticalAlign=middle;resizable=0;points=[];" vertex="1" connectable="0" parent="U23WQa-dYomXpCL9znLz-169">
          <mxGeometry x="0.0981" y="-1" relative="1" as="geometry">
            <mxPoint x="-8" y="-3" as="offset" />
          </mxGeometry>
        </mxCell>
        <mxCell id="U23WQa-dYomXpCL9znLz-171" style="edgeStyle=none;rounded=0;orthogonalLoop=1;jettySize=auto;html=1;endArrow=none;endFill=0;startArrow=classic;startFill=1;dashed=1;" edge="1" parent="1">
          <mxGeometry relative="1" as="geometry">
            <mxPoint x="1120" y="1010" as="targetPoint" />
            <Array as="points">
              <mxPoint x="1052.67" y="1010.71" />
            </Array>
            <mxPoint x="925" y="1010" as="sourcePoint" />
          </mxGeometry>
        </mxCell>
        <mxCell id="U23WQa-dYomXpCL9znLz-172" value="удаление канала из избранного" style="edgeLabel;html=1;align=center;verticalAlign=middle;resizable=0;points=[];" vertex="1" connectable="0" parent="U23WQa-dYomXpCL9znLz-171">
          <mxGeometry x="0.0981" y="-1" relative="1" as="geometry">
            <mxPoint x="-8" y="-3" as="offset" />
          </mxGeometry>
        </mxCell>
        <mxCell id="U23WQa-dYomXpCL9znLz-181" style="edgeStyle=none;rounded=0;orthogonalLoop=1;jettySize=auto;html=1;endArrow=classic;endFill=1;startArrow=none;startFill=0;" edge="1" parent="1">
          <mxGeometry relative="1" as="geometry">
            <mxPoint x="1327.5" y="725" as="targetPoint" />
            <Array as="points">
              <mxPoint x="1280.5" y="725.71" />
            </Array>
            <mxPoint x="1127.5" y="725" as="sourcePoint" />
          </mxGeometry>
        </mxCell>
        <mxCell id="U23WQa-dYomXpCL9znLz-182" value="просмотр избранных каналов" style="edgeLabel;html=1;align=center;verticalAlign=middle;resizable=0;points=[];" vertex="1" connectable="0" parent="U23WQa-dYomXpCL9znLz-181">
          <mxGeometry x="0.0981" y="-1" relative="1" as="geometry">
            <mxPoint x="-8" y="-3" as="offset" />
          </mxGeometry>
        </mxCell>
        <mxCell id="U23WQa-dYomXpCL9znLz-183" value="" style="html=1;dashed=0;whiteSpace=wrap;" vertex="1" parent="1">
          <mxGeometry x="1332.5" y="710" width="10" height="90" as="geometry" />
        </mxCell>
        <mxCell id="U23WQa-dYomXpCL9znLz-184" style="edgeStyle=none;rounded=0;orthogonalLoop=1;jettySize=auto;html=1;endArrow=classic;endFill=1;startArrow=none;startFill=0;exitX=1;exitY=0.28;exitDx=0;exitDy=0;exitPerimeter=0;" edge="1" parent="1">
          <mxGeometry relative="1" as="geometry">
            <mxPoint x="1117.5" y="700" as="targetPoint" />
            <Array as="points">
              <mxPoint x="1078.5" y="700" />
            </Array>
            <mxPoint x="922.5" y="700" as="sourcePoint" />
          </mxGeometry>
        </mxCell>
        <mxCell id="U23WQa-dYomXpCL9znLz-185" value="просмотр избранных каналов" style="edgeLabel;html=1;align=center;verticalAlign=middle;resizable=0;points=[];" vertex="1" connectable="0" parent="U23WQa-dYomXpCL9znLz-184">
          <mxGeometry x="0.0981" y="-1" relative="1" as="geometry">
            <mxPoint x="-8" y="-3" as="offset" />
          </mxGeometry>
        </mxCell>
        <mxCell id="U23WQa-dYomXpCL9znLz-190" value="" style="html=1;dashed=0;whiteSpace=wrap;" vertex="1" parent="1">
          <mxGeometry x="1119" y="690" width="10" height="130" as="geometry" />
        </mxCell>
        <mxCell id="U23WQa-dYomXpCL9znLz-191" style="edgeStyle=none;rounded=0;orthogonalLoop=1;jettySize=auto;html=1;endArrow=none;endFill=0;startArrow=classic;startFill=1;dashed=1;entryX=0;entryY=0.393;entryDx=0;entryDy=0;entryPerimeter=0;" edge="1" parent="1">
          <mxGeometry relative="1" as="geometry">
            <mxPoint x="1332.5" y="781.42" as="targetPoint" />
            <Array as="points">
              <mxPoint x="1256.67" y="782.09" />
            </Array>
            <mxPoint x="1129" y="781.38" as="sourcePoint" />
          </mxGeometry>
        </mxCell>
        <mxCell id="U23WQa-dYomXpCL9znLz-192" value="отображение избранных каналов" style="edgeLabel;html=1;align=center;verticalAlign=middle;resizable=0;points=[];" vertex="1" connectable="0" parent="U23WQa-dYomXpCL9znLz-191">
          <mxGeometry x="0.0981" y="-1" relative="1" as="geometry">
            <mxPoint x="-8" y="-3" as="offset" />
          </mxGeometry>
        </mxCell>
        <mxCell id="U23WQa-dYomXpCL9znLz-193" style="edgeStyle=none;rounded=0;orthogonalLoop=1;jettySize=auto;html=1;endArrow=none;endFill=0;startArrow=classic;startFill=1;dashed=1;" edge="1" parent="1">
          <mxGeometry relative="1" as="geometry">
            <mxPoint x="1117.5" y="800" as="targetPoint" />
            <Array as="points">
              <mxPoint x="1050.17" y="800.71" />
            </Array>
            <mxPoint x="922.5" y="800" as="sourcePoint" />
          </mxGeometry>
        </mxCell>
        <mxCell id="U23WQa-dYomXpCL9znLz-194" value="отображение избранных каналов" style="edgeLabel;html=1;align=center;verticalAlign=middle;resizable=0;points=[];" vertex="1" connectable="0" parent="U23WQa-dYomXpCL9znLz-193">
          <mxGeometry x="0.0981" y="-1" relative="1" as="geometry">
            <mxPoint x="-8" y="-3" as="offset" />
          </mxGeometry>
        </mxCell>
        <mxCell id="W0ff3i4siTfIfyOrShSM-5" value="&lt;h1 style=&quot;font-size: 20px;&quot;&gt;UPDATE 2:&lt;br&gt;&lt;/h1&gt;&lt;h1 style=&quot;font-size: 20px;&quot;&gt;&lt;font style=&quot;font-size: 20px;&quot;&gt;Заметка для ревьюера&lt;/font&gt;&lt;/h1&gt;В реалистичном сценарии надо бы, наверное, выделить подписку и в отдельное действие, но поскольку в ТЗ этого нет, ставлю только как контекстное действие." style="text;html=1;strokeColor=#9673a6;fillColor=#e1d5e7;spacing=5;spacingTop=-20;whiteSpace=wrap;overflow=hidden;rounded=0;fontSize=20;" vertex="1" parent="1">
          <mxGeometry x="2230" y="-450" width="370" height="310" as="geometry" />
        </mxCell>
        <mxCell id="W0ff3i4siTfIfyOrShSM-6" style="edgeStyle=none;rounded=0;orthogonalLoop=1;jettySize=auto;html=1;endArrow=classic;endFill=1;startArrow=none;startFill=0;" edge="1" parent="1">
          <mxGeometry relative="1" as="geometry">
            <mxPoint x="1119" y="-550" as="targetPoint" />
            <Array as="points">
              <mxPoint x="1078" y="-550" />
            </Array>
            <mxPoint x="925" y="-550" as="sourcePoint" />
          </mxGeometry>
        </mxCell>
        <mxCell id="W0ff3i4siTfIfyOrShSM-7" value="&lt;font style=&quot;font-size: 10px;&quot;&gt;оформить подписку&lt;/font&gt;" style="edgeLabel;html=1;align=center;verticalAlign=middle;resizable=0;points=[];" connectable="0" vertex="1" parent="W0ff3i4siTfIfyOrShSM-6">
          <mxGeometry x="0.0981" y="-1" relative="1" as="geometry">
            <mxPoint x="-8" y="-3" as="offset" />
          </mxGeometry>
        </mxCell>
        <mxCell id="W0ff3i4siTfIfyOrShSM-8" value="Подписка" style="shape=umlLifeline;perimeter=lifelinePerimeter;whiteSpace=wrap;html=1;container=1;collapsible=0;recursiveResize=0;outlineConnect=0;" vertex="1" parent="1">
          <mxGeometry x="1710" y="-1060" width="100" height="2380" as="geometry" />
        </mxCell>
        <mxCell id="W0ff3i4siTfIfyOrShSM-10" style="edgeStyle=none;rounded=0;orthogonalLoop=1;jettySize=auto;html=1;endArrow=none;endFill=0;startArrow=classic;startFill=1;exitX=1;exitY=0.28;exitDx=0;exitDy=0;exitPerimeter=0;dashed=1;" edge="1" parent="W0ff3i4siTfIfyOrShSM-8">
          <mxGeometry relative="1" as="geometry">
            <mxPoint x="44" y="360" as="targetPoint" />
            <Array as="points">
              <mxPoint x="-1" y="359.65999999999997" />
            </Array>
            <mxPoint x="-157" y="359.65999999999997" as="sourcePoint" />
          </mxGeometry>
        </mxCell>
        <mxCell id="W0ff3i4siTfIfyOrShSM-11" value="&lt;font style=&quot;font-size: 9px;&quot;&gt;список каналов с заданными параметрами&lt;/font&gt;" style="edgeLabel;html=1;align=center;verticalAlign=middle;resizable=0;points=[];" connectable="0" vertex="1" parent="W0ff3i4siTfIfyOrShSM-10">
          <mxGeometry x="0.0981" y="-1" relative="1" as="geometry">
            <mxPoint x="-8" y="-3" as="offset" />
          </mxGeometry>
        </mxCell>
        <mxCell id="W0ff3i4siTfIfyOrShSM-23" value="" style="html=1;dashed=0;whiteSpace=wrap;" vertex="1" parent="W0ff3i4siTfIfyOrShSM-8">
          <mxGeometry x="45" y="500" width="10" height="80" as="geometry" />
        </mxCell>
        <mxCell id="W0ff3i4siTfIfyOrShSM-21" style="edgeStyle=none;rounded=0;orthogonalLoop=1;jettySize=auto;html=1;endArrow=classic;endFill=1;startArrow=none;startFill=0;" edge="1" parent="1">
          <mxGeometry relative="1" as="geometry">
            <mxPoint x="1335" y="-540" as="targetPoint" />
            <Array as="points">
              <mxPoint x="1284.5" y="-540" />
            </Array>
            <mxPoint x="1131.5" y="-540" as="sourcePoint" />
          </mxGeometry>
        </mxCell>
        <mxCell id="W0ff3i4siTfIfyOrShSM-22" value="&lt;font style=&quot;font-size: 10px;&quot;&gt;оформить подписку&lt;/font&gt;" style="edgeLabel;html=1;align=center;verticalAlign=middle;resizable=0;points=[];" connectable="0" vertex="1" parent="W0ff3i4siTfIfyOrShSM-21">
          <mxGeometry x="0.0981" y="-1" relative="1" as="geometry">
            <mxPoint x="-8" y="-3" as="offset" />
          </mxGeometry>
        </mxCell>
        <mxCell id="W0ff3i4siTfIfyOrShSM-26" style="edgeStyle=none;rounded=0;orthogonalLoop=1;jettySize=auto;html=1;endArrow=none;endFill=0;startArrow=classic;startFill=1;dashed=1;" edge="1" parent="1">
          <mxGeometry relative="1" as="geometry">
            <mxPoint x="1755" y="-515" as="targetPoint" />
            <Array as="points">
              <mxPoint x="1499" y="-515" />
            </Array>
            <mxPoint x="1346" y="-515" as="sourcePoint" />
          </mxGeometry>
        </mxCell>
        <mxCell id="W0ff3i4siTfIfyOrShSM-27" value="подписка оформлена" style="edgeLabel;html=1;align=center;verticalAlign=middle;resizable=0;points=[];" connectable="0" vertex="1" parent="W0ff3i4siTfIfyOrShSM-26">
          <mxGeometry x="0.0981" y="-1" relative="1" as="geometry">
            <mxPoint x="-8" y="-3" as="offset" />
          </mxGeometry>
        </mxCell>
        <mxCell id="W0ff3i4siTfIfyOrShSM-28" style="edgeStyle=none;rounded=0;orthogonalLoop=1;jettySize=auto;html=1;endArrow=none;endFill=0;startArrow=classic;startFill=1;dashed=1;" edge="1" parent="1">
          <mxGeometry relative="1" as="geometry">
            <mxPoint x="1335" y="-500" as="targetPoint" />
            <Array as="points">
              <mxPoint x="1284.5" y="-500" />
            </Array>
            <mxPoint x="1131.5" y="-500" as="sourcePoint" />
          </mxGeometry>
        </mxCell>
        <mxCell id="W0ff3i4siTfIfyOrShSM-29" value="подписка оформлена" style="edgeLabel;html=1;align=center;verticalAlign=middle;resizable=0;points=[];" connectable="0" vertex="1" parent="W0ff3i4siTfIfyOrShSM-28">
          <mxGeometry x="0.0981" y="-1" relative="1" as="geometry">
            <mxPoint x="-8" y="-3" as="offset" />
          </mxGeometry>
        </mxCell>
        <mxCell id="W0ff3i4siTfIfyOrShSM-30" style="edgeStyle=none;rounded=0;orthogonalLoop=1;jettySize=auto;html=1;endArrow=none;endFill=0;startArrow=classic;startFill=1;dashed=1;" edge="1" parent="1">
          <mxGeometry relative="1" as="geometry">
            <mxPoint x="1119" y="-490" as="targetPoint" />
            <Array as="points">
              <mxPoint x="1078" y="-490" />
            </Array>
            <mxPoint x="925" y="-490" as="sourcePoint" />
          </mxGeometry>
        </mxCell>
        <mxCell id="W0ff3i4siTfIfyOrShSM-31" value="подписка оформлена" style="edgeLabel;html=1;align=center;verticalAlign=middle;resizable=0;points=[];" connectable="0" vertex="1" parent="W0ff3i4siTfIfyOrShSM-30">
          <mxGeometry x="0.0981" y="-1" relative="1" as="geometry">
            <mxPoint x="-8" y="-3" as="offset" />
          </mxGeometry>
        </mxCell>
        <mxCell id="W0ff3i4siTfIfyOrShSM-47" style="edgeStyle=none;rounded=0;orthogonalLoop=1;jettySize=auto;html=1;endArrow=classic;endFill=1;startArrow=none;startFill=0;" edge="1" parent="1">
          <mxGeometry relative="1" as="geometry">
            <mxPoint x="1754" y="60" as="targetPoint" />
            <Array as="points">
              <mxPoint x="1498" y="60" />
            </Array>
            <mxPoint x="1345" y="60" as="sourcePoint" />
          </mxGeometry>
        </mxCell>
        <mxCell id="W0ff3i4siTfIfyOrShSM-48" value="&lt;font style=&quot;font-size: 10px;&quot;&gt;оформить подписку&lt;/font&gt;" style="edgeLabel;html=1;align=center;verticalAlign=middle;resizable=0;points=[];" connectable="0" vertex="1" parent="W0ff3i4siTfIfyOrShSM-47">
          <mxGeometry x="0.0981" y="-1" relative="1" as="geometry">
            <mxPoint x="-8" y="-3" as="offset" />
          </mxGeometry>
        </mxCell>
        <mxCell id="W0ff3i4siTfIfyOrShSM-49" style="edgeStyle=none;rounded=0;orthogonalLoop=1;jettySize=auto;html=1;endArrow=classic;endFill=1;startArrow=none;startFill=0;" edge="1" parent="1">
          <mxGeometry relative="1" as="geometry">
            <mxPoint x="1119" y="40" as="targetPoint" />
            <Array as="points">
              <mxPoint x="1078" y="40" />
            </Array>
            <mxPoint x="925" y="40" as="sourcePoint" />
          </mxGeometry>
        </mxCell>
        <mxCell id="W0ff3i4siTfIfyOrShSM-50" value="&lt;font style=&quot;font-size: 10px;&quot;&gt;оформить подписку&lt;/font&gt;" style="edgeLabel;html=1;align=center;verticalAlign=middle;resizable=0;points=[];" connectable="0" vertex="1" parent="W0ff3i4siTfIfyOrShSM-49">
          <mxGeometry x="0.0981" y="-1" relative="1" as="geometry">
            <mxPoint x="-8" y="-3" as="offset" />
          </mxGeometry>
        </mxCell>
        <mxCell id="W0ff3i4siTfIfyOrShSM-51" value="" style="html=1;dashed=0;whiteSpace=wrap;" vertex="1" parent="1">
          <mxGeometry x="1755" y="30" width="10" height="80" as="geometry" />
        </mxCell>
        <mxCell id="W0ff3i4siTfIfyOrShSM-52" style="edgeStyle=none;rounded=0;orthogonalLoop=1;jettySize=auto;html=1;endArrow=classic;endFill=1;startArrow=none;startFill=0;" edge="1" parent="1">
          <mxGeometry relative="1" as="geometry">
            <mxPoint x="1335" y="50" as="targetPoint" />
            <Array as="points">
              <mxPoint x="1284.5" y="50" />
            </Array>
            <mxPoint x="1131.5" y="50" as="sourcePoint" />
          </mxGeometry>
        </mxCell>
        <mxCell id="W0ff3i4siTfIfyOrShSM-53" value="&lt;font style=&quot;font-size: 10px;&quot;&gt;оформить подписку&lt;/font&gt;" style="edgeLabel;html=1;align=center;verticalAlign=middle;resizable=0;points=[];" connectable="0" vertex="1" parent="W0ff3i4siTfIfyOrShSM-52">
          <mxGeometry x="0.0981" y="-1" relative="1" as="geometry">
            <mxPoint x="-8" y="-3" as="offset" />
          </mxGeometry>
        </mxCell>
        <mxCell id="W0ff3i4siTfIfyOrShSM-54" style="edgeStyle=none;rounded=0;orthogonalLoop=1;jettySize=auto;html=1;endArrow=none;endFill=0;startArrow=classic;startFill=1;dashed=1;" edge="1" parent="1">
          <mxGeometry relative="1" as="geometry">
            <mxPoint x="1755" y="75" as="targetPoint" />
            <Array as="points">
              <mxPoint x="1499" y="75" />
            </Array>
            <mxPoint x="1346" y="75" as="sourcePoint" />
          </mxGeometry>
        </mxCell>
        <mxCell id="W0ff3i4siTfIfyOrShSM-55" value="подписка оформлена" style="edgeLabel;html=1;align=center;verticalAlign=middle;resizable=0;points=[];" connectable="0" vertex="1" parent="W0ff3i4siTfIfyOrShSM-54">
          <mxGeometry x="0.0981" y="-1" relative="1" as="geometry">
            <mxPoint x="-8" y="-3" as="offset" />
          </mxGeometry>
        </mxCell>
        <mxCell id="W0ff3i4siTfIfyOrShSM-56" style="edgeStyle=none;rounded=0;orthogonalLoop=1;jettySize=auto;html=1;endArrow=none;endFill=0;startArrow=classic;startFill=1;dashed=1;" edge="1" parent="1">
          <mxGeometry relative="1" as="geometry">
            <mxPoint x="1335" y="90" as="targetPoint" />
            <Array as="points">
              <mxPoint x="1284.5" y="90" />
            </Array>
            <mxPoint x="1131.5" y="90" as="sourcePoint" />
          </mxGeometry>
        </mxCell>
        <mxCell id="W0ff3i4siTfIfyOrShSM-57" value="подписка оформлена" style="edgeLabel;html=1;align=center;verticalAlign=middle;resizable=0;points=[];" connectable="0" vertex="1" parent="W0ff3i4siTfIfyOrShSM-56">
          <mxGeometry x="0.0981" y="-1" relative="1" as="geometry">
            <mxPoint x="-8" y="-3" as="offset" />
          </mxGeometry>
        </mxCell>
        <mxCell id="W0ff3i4siTfIfyOrShSM-58" style="edgeStyle=none;rounded=0;orthogonalLoop=1;jettySize=auto;html=1;endArrow=none;endFill=0;startArrow=classic;startFill=1;dashed=1;" edge="1" parent="1">
          <mxGeometry relative="1" as="geometry">
            <mxPoint x="1119" y="100" as="targetPoint" />
            <Array as="points">
              <mxPoint x="1078" y="100" />
            </Array>
            <mxPoint x="925" y="100" as="sourcePoint" />
          </mxGeometry>
        </mxCell>
        <mxCell id="W0ff3i4siTfIfyOrShSM-59" value="подписка оформлена" style="edgeLabel;html=1;align=center;verticalAlign=middle;resizable=0;points=[];" connectable="0" vertex="1" parent="W0ff3i4siTfIfyOrShSM-58">
          <mxGeometry x="0.0981" y="-1" relative="1" as="geometry">
            <mxPoint x="-8" y="-3" as="offset" />
          </mxGeometry>
        </mxCell>
        <mxCell id="W0ff3i4siTfIfyOrShSM-60" value="&lt;h1 style=&quot;font-size: 20px;&quot;&gt;UPDATE 2:&lt;br&gt;&lt;/h1&gt;&lt;h1 style=&quot;font-size: 20px;&quot;&gt;&lt;font style=&quot;font-size: 20px;&quot;&gt;Заметка для ревьюера&lt;/font&gt;&lt;/h1&gt;&lt;div&gt;Может, в общем-то, быть ещё и дополнительный opt для фильтров контента. А может и не быть (ребёнок вряд ли в явном виде будет оповещён о родительском контроле, например). Думаю, в текущих условиях можно оставить один opt - но можно и расширить стопкой opt&#39;ов.&lt;br&gt;&lt;/div&gt;" style="text;html=1;strokeColor=#9673a6;fillColor=#e1d5e7;spacing=5;spacingTop=-20;whiteSpace=wrap;overflow=hidden;rounded=0;fontSize=20;" vertex="1" parent="1">
          <mxGeometry x="2230" y="-90" width="370" height="310" as="geometry" />
        </mxCell>
        <mxCell id="W0ff3i4siTfIfyOrShSM-62" style="edgeStyle=none;rounded=0;orthogonalLoop=1;jettySize=auto;html=1;endArrow=classic;endFill=1;startArrow=none;startFill=0;" edge="1" parent="1">
          <mxGeometry relative="1" as="geometry">
            <mxPoint x="1754" y="500" as="targetPoint" />
            <Array as="points">
              <mxPoint x="1498" y="500" />
            </Array>
            <mxPoint x="1345" y="500" as="sourcePoint" />
          </mxGeometry>
        </mxCell>
        <mxCell id="W0ff3i4siTfIfyOrShSM-63" value="&lt;font style=&quot;font-size: 10px;&quot;&gt;оформить подписку&lt;/font&gt;" style="edgeLabel;html=1;align=center;verticalAlign=middle;resizable=0;points=[];" connectable="0" vertex="1" parent="W0ff3i4siTfIfyOrShSM-62">
          <mxGeometry x="0.0981" y="-1" relative="1" as="geometry">
            <mxPoint x="-8" y="-3" as="offset" />
          </mxGeometry>
        </mxCell>
        <mxCell id="W0ff3i4siTfIfyOrShSM-64" style="edgeStyle=none;rounded=0;orthogonalLoop=1;jettySize=auto;html=1;endArrow=classic;endFill=1;startArrow=none;startFill=0;" edge="1" parent="1">
          <mxGeometry relative="1" as="geometry">
            <mxPoint x="1119" y="480" as="targetPoint" />
            <Array as="points">
              <mxPoint x="1078" y="480" />
            </Array>
            <mxPoint x="925" y="480" as="sourcePoint" />
          </mxGeometry>
        </mxCell>
        <mxCell id="W0ff3i4siTfIfyOrShSM-65" value="&lt;font style=&quot;font-size: 10px;&quot;&gt;оформить подписку&lt;/font&gt;" style="edgeLabel;html=1;align=center;verticalAlign=middle;resizable=0;points=[];" connectable="0" vertex="1" parent="W0ff3i4siTfIfyOrShSM-64">
          <mxGeometry x="0.0981" y="-1" relative="1" as="geometry">
            <mxPoint x="-8" y="-3" as="offset" />
          </mxGeometry>
        </mxCell>
        <mxCell id="W0ff3i4siTfIfyOrShSM-66" value="" style="html=1;dashed=0;whiteSpace=wrap;" vertex="1" parent="1">
          <mxGeometry x="1755" y="470" width="10" height="80" as="geometry" />
        </mxCell>
        <mxCell id="W0ff3i4siTfIfyOrShSM-67" style="edgeStyle=none;rounded=0;orthogonalLoop=1;jettySize=auto;html=1;endArrow=classic;endFill=1;startArrow=none;startFill=0;" edge="1" parent="1">
          <mxGeometry relative="1" as="geometry">
            <mxPoint x="1335" y="490" as="targetPoint" />
            <Array as="points">
              <mxPoint x="1284.5" y="490" />
            </Array>
            <mxPoint x="1131.5" y="490" as="sourcePoint" />
          </mxGeometry>
        </mxCell>
        <mxCell id="W0ff3i4siTfIfyOrShSM-68" value="&lt;font style=&quot;font-size: 10px;&quot;&gt;оформить подписку&lt;/font&gt;" style="edgeLabel;html=1;align=center;verticalAlign=middle;resizable=0;points=[];" connectable="0" vertex="1" parent="W0ff3i4siTfIfyOrShSM-67">
          <mxGeometry x="0.0981" y="-1" relative="1" as="geometry">
            <mxPoint x="-8" y="-3" as="offset" />
          </mxGeometry>
        </mxCell>
        <mxCell id="W0ff3i4siTfIfyOrShSM-69" style="edgeStyle=none;rounded=0;orthogonalLoop=1;jettySize=auto;html=1;endArrow=none;endFill=0;startArrow=classic;startFill=1;dashed=1;" edge="1" parent="1">
          <mxGeometry relative="1" as="geometry">
            <mxPoint x="1755" y="515" as="targetPoint" />
            <Array as="points">
              <mxPoint x="1499" y="515" />
            </Array>
            <mxPoint x="1346" y="515" as="sourcePoint" />
          </mxGeometry>
        </mxCell>
        <mxCell id="W0ff3i4siTfIfyOrShSM-70" value="подписка оформлена" style="edgeLabel;html=1;align=center;verticalAlign=middle;resizable=0;points=[];" connectable="0" vertex="1" parent="W0ff3i4siTfIfyOrShSM-69">
          <mxGeometry x="0.0981" y="-1" relative="1" as="geometry">
            <mxPoint x="-8" y="-3" as="offset" />
          </mxGeometry>
        </mxCell>
        <mxCell id="W0ff3i4siTfIfyOrShSM-71" style="edgeStyle=none;rounded=0;orthogonalLoop=1;jettySize=auto;html=1;endArrow=none;endFill=0;startArrow=classic;startFill=1;dashed=1;" edge="1" parent="1">
          <mxGeometry relative="1" as="geometry">
            <mxPoint x="1335" y="530" as="targetPoint" />
            <Array as="points">
              <mxPoint x="1284.5" y="530" />
            </Array>
            <mxPoint x="1131.5" y="530" as="sourcePoint" />
          </mxGeometry>
        </mxCell>
        <mxCell id="W0ff3i4siTfIfyOrShSM-72" value="подписка оформлена" style="edgeLabel;html=1;align=center;verticalAlign=middle;resizable=0;points=[];" connectable="0" vertex="1" parent="W0ff3i4siTfIfyOrShSM-71">
          <mxGeometry x="0.0981" y="-1" relative="1" as="geometry">
            <mxPoint x="-8" y="-3" as="offset" />
          </mxGeometry>
        </mxCell>
        <mxCell id="W0ff3i4siTfIfyOrShSM-73" style="edgeStyle=none;rounded=0;orthogonalLoop=1;jettySize=auto;html=1;endArrow=none;endFill=0;startArrow=classic;startFill=1;dashed=1;" edge="1" parent="1">
          <mxGeometry relative="1" as="geometry">
            <mxPoint x="1119" y="540" as="targetPoint" />
            <Array as="points">
              <mxPoint x="1078" y="540" />
            </Array>
            <mxPoint x="925" y="540" as="sourcePoint" />
          </mxGeometry>
        </mxCell>
        <mxCell id="W0ff3i4siTfIfyOrShSM-74" value="подписка оформлена" style="edgeLabel;html=1;align=center;verticalAlign=middle;resizable=0;points=[];" connectable="0" vertex="1" parent="W0ff3i4siTfIfyOrShSM-73">
          <mxGeometry x="0.0981" y="-1" relative="1" as="geometry">
            <mxPoint x="-8" y="-3" as="offset" />
          </mxGeometry>
        </mxCell>
        <mxCell id="W0ff3i4siTfIfyOrShSM-75" value="&lt;h1 style=&quot;font-size: 20px;&quot;&gt;UPDATE 2:&lt;br&gt;&lt;/h1&gt;&lt;h1 style=&quot;font-size: 20px;&quot;&gt;&lt;font style=&quot;font-size: 20px;&quot;&gt;Заметка для ревьюера&lt;/font&gt;&lt;/h1&gt;&lt;div&gt;Поправил alt и opt. Надеюсь, в этот раз верно.&lt;br&gt;&lt;/div&gt;&lt;div&gt;&lt;br&gt;&lt;/div&gt;В принципе, можно от подписки ещё прописать взаимодействие с сервисом &quot;Оплата&quot; и ассоциированными с ним внешними платёжными сервисами. Если надо - пропишу." style="text;html=1;strokeColor=#9673a6;fillColor=#e1d5e7;spacing=5;spacingTop=-20;whiteSpace=wrap;overflow=hidden;rounded=0;fontSize=20;" vertex="1" parent="1">
          <mxGeometry x="1820" y="-1017" width="450" height="257" as="geometry" />
        </mxCell>
      </root>
    </mxGraphModel>
  </diagram>
</mxfile>
